<svg width="387" height="340" viewBox="0 0 387 340" fill="none" xmlns="http://www.w3.org/2000/svg">
<g clip-path="url(#clip0)">
<path d="M215.783 340C293.265 340 356.076 328.88 356.076 315.163C356.076 301.445 293.265 290.325 215.783 290.325C138.301 290.325 75.49 301.445 75.49 315.163C75.49 328.88 138.301 340 215.783 340Z" fill="#3F3D56"/>
<path d="M122.418 154.347C131.335 141.063 135.207 125.017 133.332 109.118C131.456 93.2187 123.957 78.5197 112.194 67.6862C100.432 56.8528 85.1844 50.6023 69.2176 50.0683C53.2508 49.5343 37.6217 54.7521 25.1646 64.7755C12.7074 74.7989 4.24702 88.9642 1.31769 104.703C-1.61165 120.441 1.18404 136.71 9.19775 150.56C17.2115 164.41 29.9126 174.923 44.9978 180.194C60.083 185.464 76.5534 185.142 91.4223 179.287C92.3862 182.735 94.1883 185.89 96.6673 188.468C99.1462 191.047 102.225 192.97 105.627 194.064C109.029 195.158 112.649 195.39 116.162 194.739C119.676 194.087 122.973 192.573 125.759 190.331C128.546 188.089 130.734 185.19 132.128 181.893C133.521 178.595 134.078 175.003 133.747 171.438C133.416 167.873 132.207 164.445 130.23 161.463C128.253 158.48 125.569 156.035 122.418 154.347Z" fill="#19CDFF"/>
<path d="M106.654 103.59H27.1862V109.877H106.654V103.59Z" fill="white"/>
<path d="M106.654 114.068H27.1862V120.355H106.654V114.068Z" fill="white"/>
<path d="M106.654 124.547H27.1862V130.834H106.654V124.547Z" fill="white"/>
<path d="M264.582 104.547C255.665 91.2638 251.793 75.2175 253.668 59.3185C255.544 43.4194 263.043 28.7203 274.806 17.8869C286.568 7.05346 301.816 0.802986 317.782 0.268969C333.749 -0.265047 349.378 4.95275 361.835 14.9762C374.293 24.9995 382.753 39.1648 385.682 54.9032C388.612 70.6415 385.816 86.9108 377.802 100.761C369.789 114.611 357.087 125.124 342.002 130.394C326.917 135.665 310.447 135.343 295.578 129.488C294.614 132.936 292.812 136.09 290.333 138.669C287.854 141.248 284.775 143.171 281.373 144.265C277.971 145.359 274.351 145.591 270.838 144.939C267.324 144.288 264.027 142.773 261.241 140.531C258.454 138.29 256.266 135.39 254.872 132.093C253.479 128.796 252.922 125.204 253.253 121.639C253.584 118.073 254.793 114.646 256.77 111.663C258.747 108.68 261.431 106.236 264.582 104.547Z" fill="#19CDFF"/>
<path d="M280.347 60.0771L359.814 60.0771V53.79L280.347 53.79V60.0771Z" fill="white"/>
<path d="M280.347 70.5557L359.814 70.5557V64.2685L280.347 64.2685V70.5557Z" fill="white"/>
<path d="M280.347 81.0342L359.814 81.0342V74.747L280.347 74.747V81.0342Z" fill="white"/>
<path d="M148.576 287.79C143.597 280.374 141.436 271.416 142.483 262.539C143.53 253.663 147.717 245.457 154.284 239.409C160.85 233.361 169.363 229.871 178.277 229.573C187.191 229.275 195.916 232.188 202.871 237.784C209.826 243.38 214.549 251.288 216.184 260.074C217.82 268.861 216.259 277.944 211.785 285.676C207.311 293.408 200.22 299.278 191.798 302.22C183.377 305.162 174.181 304.983 165.88 301.714C165.342 303.639 164.336 305.4 162.952 306.84C161.568 308.28 159.849 309.353 157.95 309.964C156.051 310.575 154.03 310.704 152.068 310.34C150.107 309.977 148.266 309.131 146.71 307.879C145.155 306.628 143.933 305.009 143.155 303.169C142.377 301.328 142.066 299.322 142.251 297.332C142.436 295.341 143.11 293.428 144.214 291.763C145.318 290.098 146.816 288.733 148.576 287.79Z" fill="#19CDFF"/>
<path d="M164.873 270.399C167.257 270.399 169.19 268.463 169.19 266.074C169.19 263.685 167.257 261.749 164.873 261.749C162.49 261.749 160.557 263.685 160.557 266.074C160.557 268.463 162.49 270.399 164.873 270.399Z" fill="white"/>
<path d="M179.599 270.399C181.982 270.399 183.915 268.463 183.915 266.074C183.915 263.685 181.982 261.749 179.599 261.749C177.215 261.749 175.283 263.685 175.283 266.074C175.283 268.463 177.215 270.399 179.599 270.399Z" fill="white"/>
<path d="M194.324 270.399C196.708 270.399 198.64 268.463 198.64 266.074C198.64 263.685 196.708 261.749 194.324 261.749C191.941 261.749 190.008 263.685 190.008 266.074C190.008 268.463 191.941 270.399 194.324 270.399Z" fill="white"/>
<path d="M183.921 131.892C183.921 131.892 203.178 132.417 206.359 133.577C209.539 134.736 210.962 143.028 210.962 143.028L196.009 147.738L184.826 147.103L176.409 147.699L181.109 135.365L183.921 131.892Z" fill="#2F2E41"/>
<path d="M184.752 125.56C184.752 125.56 186.019 130.464 183.207 133.936C180.395 137.408 195.295 149.782 195.295 149.782L203.156 148.428C203.156 148.428 201.423 133.359 203.751 129.544C206.078 125.728 184.752 125.56 184.752 125.56Z" fill="#FFB8B8"/>
<path d="M237.03 268.941L219.685 291.991L231.522 298.916L247.812 272.206L237.03 268.941Z" fill="#FFB8B8"/>
<path d="M224.864 292.38C224.864 292.38 218.477 284.943 218.761 286.601C219.046 288.26 214.217 302.324 218.71 303.684C223.202 305.045 261.73 308.653 262.26 304.293C262.79 299.933 250.766 296.882 250.766 296.882C250.766 296.882 243.623 290.002 242.04 290.702C240.456 291.402 224.864 292.38 224.864 292.38Z" fill="#2F2E41"/>
<path d="M233.138 290.955L246.991 314.606L257.45 308.536L243.481 289.173L233.138 290.955Z" fill="#FFB8B8"/>
<path d="M255.007 234.685L250.896 240.515C250.896 240.515 231.296 267.795 233.377 269.997C235.459 272.2 244.127 280.524 248.536 278.911C252.945 277.298 268.608 249.416 268.608 249.416L264.522 233.046L255.007 234.685Z" fill="#2F2E41"/>
<path d="M170.576 229.165C170.576 229.165 174.965 237.373 186.09 240.152C197.215 242.931 208.838 248.613 209.252 248.542C209.666 248.47 210.836 247.842 211.12 249.5C211.405 251.159 214.456 254.048 214.456 254.048C214.456 254.048 226.745 295.897 231.438 295.942C236.131 295.988 245.776 292.619 245.976 291.304C246.177 289.989 231.606 247.252 231.464 246.423L229.757 236.473C229.757 236.473 249.027 239.556 250.824 240.1C252.622 240.644 268.608 249.416 268.608 249.416C268.608 249.416 284.905 237.645 269.662 225.758C254.419 213.87 228.218 205.15 228.218 205.15L218.819 202.501L210.627 202.011L209.421 197.376L190.02 198.497L169.774 207.107L170.576 229.165Z" fill="#2F2E41"/>
<path d="M196.181 135.321C204.527 135.321 211.293 128.541 211.293 120.176C211.293 111.812 204.527 105.032 196.181 105.032C187.834 105.032 181.068 111.812 181.068 120.176C181.068 128.541 187.834 135.321 196.181 135.321Z" fill="#FFB8B8"/>
<path d="M182.509 132.349L184.326 132.036C184.326 132.036 187.609 144.703 197.765 146.795C197.765 146.795 202.776 140.779 202.562 139.764C202.348 138.749 206.53 133.333 208.754 136.365C210.978 139.397 208.211 192.803 210.079 193.762C211.947 194.721 215.955 195.738 212.73 199.281C209.504 202.825 196.692 207.593 193.854 205.947C191.016 204.302 185.217 190.361 182.709 185.671C180.201 180.981 176.186 165.025 176.186 165.025C176.186 165.025 171.06 147.553 174.215 143.595C177.369 139.637 182.509 132.349 182.509 132.349Z" fill="#575A89"/>
<path d="M196.972 198.097C196.634 201.818 196.056 205.512 195.241 209.157C194.5 212.123 193.637 213.914 192.652 213.837C190.139 213.649 188.997 217.342 188.408 221.601C187.779 226.118 187.779 231.271 187.433 233.093C186.976 235.499 184.052 237.335 178.209 236.796C174.73 236.4 171.315 235.56 168.046 234.298C160.158 231.424 160.391 208.114 161.711 190.817C162.518 180.216 163.732 171.867 163.732 171.867C163.732 171.867 161.335 164.704 160.569 159.795C160.416 158.9 160.34 157.992 160.34 157.084C160.457 152.795 168.27 141.206 172.991 133.988C177.717 126.769 184.164 132.065 184.164 132.065L181.92 138.851C181.92 138.851 185.398 144.228 185.423 149.346C185.448 154.464 193.748 158.157 196.728 160.635C198.601 162.191 198.556 182.973 196.972 198.097Z" fill="#2F2E41"/>
<path d="M203.534 134.49C203.534 134.49 204.079 135.135 206.572 134.82C209.563 134.443 213.675 135.48 214.63 138.341C216.382 143.588 221.321 164.934 221.321 164.934C221.321 164.934 223.377 189.337 224.301 194.727C225.225 200.117 224.766 204.892 225.678 207.723C226.589 210.553 216.68 202.443 213.027 203.499C209.375 204.555 207.028 190.873 207.487 186.098C207.946 181.324 208.334 176.135 207.067 171.231C205.8 166.327 208.046 153.348 207.962 150.374C207.878 147.401 199.909 139.907 203.534 134.49Z" fill="#2F2E41"/>
<path d="M214.227 210.335C214.227 210.335 230.228 219.083 231.759 231.535C233.291 243.986 210.357 219.479 210.357 219.479L214.227 210.335Z" fill="#FFB8B8"/>
<path d="M223.361 201.506C223.361 201.506 228.264 226.272 235.902 224.957C243.54 223.641 231.635 200.08 231.635 200.08L223.361 201.506Z" fill="#FFB8B8"/>
<path d="M249.519 309.475C249.519 309.475 245.608 313.991 244.638 313.304C243.669 312.617 241.438 321.965 243.449 323.753C245.459 325.541 253.204 328.476 253.288 331.45C253.372 334.423 274.142 333.833 274.885 330.717C275.629 327.601 272.28 320.495 269.927 319.193C267.574 317.891 258.873 305.906 258.873 305.906C258.873 305.906 252.059 306.904 249.519 309.475Z" fill="#2F2E41"/>
<path opacity="0.1" d="M211.678 225.482C207.967 222.857 197.606 222.206 188.408 221.601C184.372 221.341 180.56 221.087 177.631 220.675C174.808 220.283 172.27 217.699 170.016 213.848C166.6 208.013 163.838 199.262 161.711 190.818C162.518 180.216 163.731 171.867 163.731 171.867C163.731 171.867 161.335 164.705 160.569 159.795C161.109 159.042 161.805 158.414 162.61 157.954C172.366 153.757 181.682 195.06 182.864 201.542C182.885 201.648 182.9 201.75 182.915 201.837C183.489 205.174 189.687 208.028 195.241 209.157C198.662 209.854 201.845 209.9 203.312 208.994C207.165 206.624 219.014 216.111 219.912 216.381C220.811 216.656 217.008 229.262 211.678 225.482Z" fill="black"/>
<path d="M162.611 155.411C162.611 155.411 155.52 158.767 158.636 174.451C161.752 190.135 168.029 216.799 177.628 218.133C187.228 219.468 206.343 219.163 211.676 222.94C217.009 226.717 220.81 214.11 219.912 213.838C219.013 213.566 207.164 204.082 203.311 206.453C199.458 208.824 183.84 204.684 182.916 199.295C181.992 193.905 172.528 151.142 162.611 155.411Z" fill="#2F2E41"/>
<path d="M213.712 147.89L221.506 166.013C221.506 166.013 222.291 165.621 223.202 168.452C224.114 171.283 224.54 173.77 226.137 175.629C227.734 177.489 234.838 204.01 235.051 205.254C235.265 206.498 225.239 210.786 222.999 207.33C220.759 203.874 213.712 147.89 213.712 147.89Z" fill="#2F2E41"/>
<path d="M187.583 119.965C188.162 119.81 188.247 119.04 188.266 118.439C188.37 115.224 190.302 111.925 193.374 110.989C194.552 110.665 195.786 110.597 196.993 110.789C198.716 111.019 200.379 111.575 201.894 112.428C202.694 112.878 203.479 113.421 204.386 113.559C204.986 113.65 207.58 114.406 208.177 114.512C209.489 114.746 210.708 115.922 211.967 115.485C213.171 115.066 213.438 113.503 213.467 112.226C213.533 109.316 211.329 105.289 209.388 103.125C207.914 101.482 205.696 100.724 203.528 100.33C200.994 99.9217 198.427 99.7652 195.864 99.8624C192.393 99.9244 188.827 100.193 185.698 101.698C182.568 103.202 179.94 106.197 179.79 109.672C179.759 110.396 179.833 111.123 179.772 111.845C179.624 113.606 178.691 115.197 178.253 116.91C177.94 118.166 177.893 119.474 178.116 120.75C178.338 122.025 178.825 123.24 179.544 124.315C180.706 126.028 182.531 127.577 182.464 129.647L184.982 127.032C185.358 126.745 185.625 126.336 185.736 125.876C185.848 125.415 185.799 124.929 185.597 124.501L184.706 121.016C184.477 120.394 184.45 119.716 184.629 119.077C185.584 116.711 186.617 120.224 187.583 119.965Z" fill="#2F2E41"/>
<path d="M302.027 294.209C301.922 294.038 299.462 289.92 298.608 281.37C297.826 273.526 298.329 260.303 305.172 241.859C318.135 206.918 302.184 178.725 302.021 178.444L302.808 177.987C302.85 178.058 306.966 185.246 309.397 196.692C312.61 211.867 311.44 227.645 306.024 242.177C293.083 277.058 302.704 293.571 302.803 293.734L302.027 294.209Z" fill="#3F3D56"/>
<path d="M296.958 176.393C300.223 176.393 302.87 173.74 302.87 170.468C302.87 167.196 300.223 164.544 296.958 164.544C293.693 164.544 291.046 167.196 291.046 170.468C291.046 173.74 293.693 176.393 296.958 176.393Z" fill="#19CDFF"/>
<path d="M315.603 198.268C318.868 198.268 321.515 195.615 321.515 192.343C321.515 189.071 318.868 186.419 315.603 186.419C312.338 186.419 309.691 189.071 309.691 192.343C309.691 195.615 312.338 198.268 315.603 198.268Z" fill="#3F3D56"/>
<path d="M302.87 212.851C306.135 212.851 308.781 210.198 308.781 206.926C308.781 203.654 306.135 201.002 302.87 201.002C299.605 201.002 296.958 203.654 296.958 206.926C296.958 210.198 299.605 212.851 302.87 212.851Z" fill="#19CDFF"/>
<path d="M318.331 225.156C321.596 225.156 324.243 222.503 324.243 219.231C324.243 215.959 321.596 213.307 318.331 213.307C315.066 213.307 312.42 215.959 312.42 219.231C312.42 222.503 315.066 225.156 318.331 225.156Z" fill="#19CDFF"/>
<path d="M298.322 244.296C301.587 244.296 304.234 241.644 304.234 238.372C304.234 235.1 301.587 232.448 298.322 232.448C295.057 232.448 292.41 235.1 292.41 238.372C292.41 241.644 295.057 244.296 298.322 244.296Z" fill="#3F3D56"/>
<path d="M305.598 294.427C305.598 294.427 299.686 279.844 317.422 268.906L305.598 294.427Z" fill="#3F3D56"/>
<path d="M298.327 294.162C298.327 294.162 295.637 278.654 274.813 278.787L298.327 294.162Z" fill="#3F3D56"/>
</g>
<defs>
<clipPath id="clip0">
<rect width="387" height="340" fill="white"/>
</clipPath>
</defs>
</svg>
