<svg width="380" height="339" viewBox="0 0 380 339" fill="none" xmlns="http://www.w3.org/2000/svg">
<g clip-path="url(#clip0)">
<path d="M77.6689 315.794C77.603 323.296 77.0534 330.786 76.0233 338.217C75.9872 338.478 75.948 338.739 75.9118 339L5.63688 338.607C5.43054 338.348 5.22745 338.086 5.03067 337.821C4.37458 336.942 3.75963 336.039 3.19516 335.104C0.481946 330.602 -0.760192 325.331 0.484553 321.694L0.506858 321.637C0.775549 320.841 1.19894 320.105 1.75274 319.473C4.59073 316.279 10.3289 316.812 15.5361 319.39C10.8655 314.279 7.14657 307.829 6.86399 302.073C6.58692 296.457 9.52386 292.446 12.7093 289.037C12.8138 288.925 12.9183 288.815 13.0228 288.705C13.0736 288.649 13.1273 288.596 13.1779 288.539C15.6632 285.942 18.5607 283.381 22.7546 283.691C27.3542 284.031 32.4538 287.883 36.0294 292.371C39.6051 296.856 41.9812 301.951 44.3896 306.923C46.8011 311.893 49.4102 316.989 53.28 321.237C48.0387 314.609 43.8128 307.068 42.2518 299.734C40.6907 292.4 42.0645 285.356 46.7358 281.902C48.1539 280.886 49.7949 280.224 51.5214 279.971C51.723 279.938 51.9277 279.911 52.1356 279.887C56.4598 279.395 61.6229 280.89 66.0157 284.464C70.8534 288.399 74.2074 294.233 75.8762 299.771C77.5449 305.309 77.7227 310.64 77.6689 315.794Z" fill="#7FFF7C"/>
<path d="M31.6909 338.753L30.3471 338.745C29.9205 338.479 29.4918 338.215 29.0611 337.955C28.7944 337.787 28.5247 337.625 28.2548 337.459C23.7975 334.738 19.3122 332.127 14.7991 329.628C10.2901 327.126 5.75842 324.74 1.20409 322.469C1.08337 322.416 0.984888 322.323 0.925745 322.205C0.866602 322.088 0.850537 321.953 0.880351 321.825C0.885233 321.808 0.892792 321.792 0.902745 321.778C0.966268 321.659 1.10825 321.609 1.31547 321.711C1.87409 321.991 2.43594 322.271 2.99453 322.557C7.56131 324.867 12.1085 327.293 16.6361 329.833C21.1605 332.373 25.6592 335.024 30.1321 337.788C30.2262 337.845 30.3203 337.905 30.4144 337.962C30.8409 338.226 31.2644 338.489 31.6909 338.753Z" fill="#3F3D56"/>
<path d="M49.0174 338.85L48.1865 338.845C47.9991 338.583 47.8148 338.321 47.6274 338.058C43.2241 331.885 38.8217 325.712 34.4202 319.539C27.2122 309.433 20.0065 299.327 12.8028 289.22C12.7601 289.166 12.7284 289.104 12.7093 289.037C12.6477 288.813 12.8121 288.682 13.0229 288.705C13.1117 288.718 13.1968 288.75 13.2725 288.798C13.3482 288.846 13.4128 288.91 13.4619 288.985C17.5031 294.652 21.5432 300.318 25.5823 305.981C32.7528 316.037 39.9222 326.092 47.0905 336.145C47.5465 336.784 48.0024 337.425 48.4584 338.063C48.6458 338.325 48.8332 338.588 49.0174 338.85Z" fill="#3F3D56"/>
<path d="M67.5296 334.026C67.4872 335.426 67.3945 336.803 67.2734 338.168C67.25 338.429 67.2265 338.69 67.203 338.951L66.3311 338.946C66.3578 338.685 66.3845 338.424 66.4079 338.163C66.5921 336.191 66.7228 334.197 66.7406 332.149C66.7638 326.47 66.2102 320.803 65.0883 315.236C63.8958 309.242 62.1836 303.362 59.971 297.665C57.6488 291.656 54.849 285.842 51.5984 280.28C51.5372 280.19 51.5099 280.08 51.5214 279.971C51.5574 279.723 51.8883 279.649 52.1356 279.887C52.1844 279.933 52.2265 279.987 52.2606 280.045C52.6627 280.736 53.0576 281.43 53.4451 282.125C56.5758 287.718 59.2555 293.552 61.4586 299.571C63.5572 305.287 65.1535 311.175 66.2294 317.168C67.2372 322.728 67.6728 328.377 67.5296 334.026Z" fill="#3F3D56"/>
<path d="M256.338 11.0799C256.338 8.88852 256.988 6.74633 258.205 4.92425C259.423 3.10217 261.154 1.68203 263.179 0.843413C265.204 0.00479989 267.433 -0.214618 269.583 0.212903C271.733 0.640424 273.707 1.69568 275.257 3.24524C276.807 4.79479 277.863 6.76904 278.29 8.91833C278.718 11.0676 278.499 13.2954 277.66 15.32C276.821 17.3446 275.4 19.0751 273.578 20.2925C271.755 21.51 269.612 22.1598 267.42 22.1598C264.482 22.1565 261.665 20.9881 259.587 18.9109C257.51 16.8338 256.341 14.0175 256.338 11.0799ZM277.337 11.0799C277.337 9.1192 276.755 7.2025 275.666 5.57221C274.576 3.94193 273.027 2.67127 271.215 1.92093C269.403 1.1706 267.409 0.974276 265.486 1.3568C263.562 1.73931 261.795 2.6835 260.409 4.06994C259.022 5.45639 258.077 7.22282 257.695 9.14587C257.312 11.0689 257.508 13.0622 258.259 14.8737C259.01 16.6852 260.281 18.2335 261.911 19.3228C263.542 20.4121 265.459 20.9935 267.42 20.9935C270.05 20.9906 272.57 19.9452 274.429 18.0866C276.288 16.2281 277.334 13.7083 277.337 11.0799Z" fill="#CCCCCC"/>
<path d="M267.42 17.4946C270.964 17.4946 273.837 14.6226 273.837 11.0799C273.837 7.53718 270.964 4.66522 267.42 4.66522C263.877 4.66522 261.004 7.53718 261.004 11.0799C261.004 14.6226 263.877 17.4946 267.42 17.4946Z" fill="#19CDFF"/>
<path d="M230.088 21.5767C235.887 21.5767 240.588 16.8771 240.588 11.0799C240.588 5.28269 235.887 0.58313 230.088 0.58313C224.29 0.58313 219.589 5.28269 219.589 11.0799C219.589 16.8771 224.29 21.5767 230.088 21.5767Z" fill="#CCCCCC"/>
<path d="M192.756 21.5767C198.555 21.5767 203.256 16.8771 203.256 11.0799C203.256 5.28269 198.555 0.58313 192.756 0.58313C186.958 0.58313 182.257 5.28269 182.257 11.0799C182.257 16.8771 186.958 21.5767 192.756 21.5767Z" fill="#CCCCCC"/>
<path d="M370.084 201.771H102.343C99.7137 201.768 97.1931 200.723 95.3341 198.864C93.475 197.006 92.4293 194.486 92.4264 191.858V51.3175C92.4294 48.6892 93.475 46.1693 95.3341 44.3108C97.1931 42.4523 99.7137 41.4069 102.343 41.4039H370.084C372.713 41.4069 375.233 42.4523 377.092 44.3108C378.951 46.1693 379.997 48.6892 380 51.3175V191.858C379.997 194.486 378.951 197.006 377.092 198.864C375.233 200.723 372.713 201.768 370.084 201.771ZM102.343 42.5702C100.023 42.5729 97.799 43.4953 96.1586 45.1352C94.5183 46.775 93.5956 48.9984 93.593 51.3175V191.858C93.5956 194.177 94.5183 196.4 96.1586 198.04C97.799 199.68 100.023 200.602 102.343 200.605H370.084C372.403 200.602 374.627 199.68 376.268 198.04C377.908 196.4 378.831 194.177 378.833 191.858V51.3175C378.831 48.9984 377.908 46.775 376.268 45.1352C374.627 43.4953 372.403 42.5729 370.084 42.5702H102.343Z" fill="#3F3D56"/>
<path d="M193.34 164.449H124.509C121.88 164.446 119.359 163.401 117.5 161.542C115.641 159.684 114.595 157.164 114.592 154.536V85.7235C114.595 83.0952 115.641 80.5754 117.5 78.7168C119.359 76.8583 121.88 75.8129 124.509 75.8099H193.34C195.969 75.8129 198.489 76.8583 200.348 78.7168C202.207 80.5754 203.253 83.0952 203.256 85.7235V154.536C203.253 157.164 202.207 159.684 200.348 161.542C198.489 163.401 195.969 164.446 193.34 164.449ZM124.509 76.9762C122.189 76.9789 119.965 77.9013 118.325 79.5412C116.684 81.181 115.762 83.4044 115.759 85.7235V154.536C115.762 156.855 116.684 159.078 118.325 160.718C119.965 162.358 122.189 163.28 124.509 163.283H193.34C195.659 163.28 197.883 162.358 199.524 160.718C201.164 159.078 202.087 156.855 202.089 154.536V85.7235C202.087 83.4044 201.164 81.181 199.524 79.5412C197.883 77.9013 195.659 76.9789 193.34 76.9762H124.509Z" fill="#CCCCCC"/>
<path d="M363.077 113.132H230.665C229.427 113.132 228.24 112.64 227.365 111.765C226.49 110.89 225.998 109.704 225.998 108.467C225.998 107.229 226.49 106.043 227.365 105.168C228.24 104.293 229.427 103.801 230.665 103.801H363.077C364.315 103.801 365.502 104.293 366.377 105.168C367.252 106.043 367.744 107.229 367.744 108.467C367.744 109.704 367.252 110.89 366.377 111.765C365.502 112.64 364.315 113.132 363.077 113.132Z" fill="#CCCCCC"/>
<path d="M295.996 93.3046H230.665C229.427 93.3046 228.24 92.8131 227.365 91.9382C226.49 91.0633 225.998 89.8766 225.998 88.6394C225.998 87.4021 226.49 86.2154 227.365 85.3405C228.24 84.4656 229.427 83.9741 230.665 83.9741H295.996C297.234 83.9741 298.421 84.4656 299.296 85.3405C300.171 86.2154 300.663 87.4021 300.663 88.6394C300.663 89.8766 300.171 91.0633 299.296 91.9382C298.421 92.8131 297.234 93.3046 295.996 93.3046Z" fill="#CCCCCC"/>
<path d="M363.077 152.203H230.665C229.427 152.203 228.24 151.712 227.365 150.837C226.49 149.962 225.998 148.775 225.998 147.538C225.998 146.301 226.49 145.114 227.365 144.239C228.24 143.364 229.427 142.873 230.665 142.873H363.077C364.315 142.873 365.502 143.364 366.377 144.239C367.252 145.114 367.744 146.301 367.744 147.538C367.744 148.775 367.252 149.962 366.377 150.837C365.502 151.712 364.315 152.203 363.077 152.203Z" fill="#CCCCCC"/>
<path d="M295.996 132.376H230.665C229.427 132.376 228.24 131.884 227.365 131.009C226.49 130.135 225.998 128.948 225.998 127.711C225.998 126.473 226.49 125.287 227.365 124.412C228.24 123.537 229.427 123.045 230.665 123.045H295.996C297.234 123.045 298.421 123.537 299.296 124.412C300.171 125.287 300.663 126.473 300.663 127.711C300.663 128.948 300.171 130.135 299.296 131.009C298.421 131.884 297.234 132.376 295.996 132.376Z" fill="#CCCCCC"/>
<path d="M200.085 161.563C200.008 161.563 199.931 161.548 199.86 161.518C199.789 161.488 199.724 161.445 199.67 161.389L118.229 78.8741C118.176 78.8196 118.133 78.755 118.104 78.6841C118.076 78.6132 118.061 78.5372 118.061 78.4607C118.062 78.3841 118.078 78.3084 118.107 78.2379C118.137 78.1673 118.181 78.1033 118.235 78.0496C118.29 77.9958 118.354 77.9533 118.425 77.9245C118.496 77.8956 118.572 77.8811 118.649 77.8816C118.725 77.8821 118.801 77.8977 118.872 77.9275C118.942 77.9573 119.006 78.0007 119.06 78.0552L200.501 160.571C200.581 160.652 200.636 160.756 200.658 160.869C200.68 160.982 200.668 161.099 200.624 161.205C200.579 161.311 200.504 161.402 200.409 161.466C200.313 161.529 200.2 161.563 200.085 161.563Z" fill="#CCCCCC"/>
<path d="M117.763 161.563C117.648 161.563 117.536 161.529 117.44 161.465C117.344 161.402 117.269 161.311 117.225 161.205C117.18 161.099 117.168 160.982 117.19 160.869C117.212 160.756 117.267 160.652 117.348 160.571L198.786 78.0552C198.84 78.0005 198.904 77.957 198.974 77.9271C199.045 77.8972 199.121 77.8815 199.197 77.8809C199.274 77.8803 199.35 77.8948 199.421 77.9236C199.492 77.9525 199.557 77.995 199.611 78.0488C199.666 78.1026 199.709 78.1667 199.739 78.2373C199.769 78.3079 199.785 78.3838 199.785 78.4604C199.785 78.537 199.771 78.613 199.742 78.684C199.713 78.755 199.67 78.8196 199.616 78.8741L118.178 161.389C118.124 161.445 118.059 161.488 117.988 161.518C117.917 161.548 117.84 161.563 117.763 161.563Z" fill="#CCCCCC"/>
<path d="M359.001 184.568H321.669C319.271 184.568 316.971 183.616 315.275 181.921C313.58 180.226 312.627 177.926 312.627 175.529C312.627 173.132 313.58 170.833 315.275 169.138C316.971 167.443 319.271 166.49 321.669 166.49H359.001C361.399 166.49 363.698 167.443 365.394 169.138C367.089 170.833 368.042 173.132 368.042 175.529C368.042 177.926 367.089 180.226 365.394 181.921C363.698 183.616 361.399 184.568 359.001 184.568Z" fill="#19CDFF"/>
<path d="M4.87421 338.943H180.452C180.606 338.943 180.755 338.882 180.864 338.772C180.973 338.663 181.035 338.515 181.035 338.36C181.035 338.205 180.973 338.057 180.864 337.948C180.755 337.838 180.606 337.777 180.452 337.777H4.87421C4.7195 337.777 4.57113 337.838 4.46173 337.948C4.35234 338.057 4.29089 338.205 4.29089 338.36C4.29089 338.515 4.35234 338.663 4.46173 338.772C4.57113 338.882 4.7195 338.943 4.87421 338.943Z" fill="#3F3D56"/>
<path d="M114.495 332.265L121.647 332.265L125.048 304.688L114.494 304.689L114.495 332.265Z" fill="#FFB8B8"/>
<path d="M135.438 338.903L112.963 338.904L112.962 330.223L126.754 330.222C129.057 330.222 131.266 331.136 132.895 332.764C134.523 334.392 135.438 336.6 135.438 338.903Z" fill="#2F2E41"/>
<path d="M62.6064 324.166L69.111 327.137L83.667 303.467L74.0662 299.083L62.6064 324.166Z" fill="#FFB8B8"/>
<path d="M78.8974 338.904L58.4535 329.569L62.0613 321.672L74.6064 327.4C76.7013 328.357 78.3303 330.106 79.135 332.264C79.9397 334.421 79.8543 336.809 78.8974 338.904L78.8974 338.904Z" fill="#2F2E41"/>
<path d="M83.432 239.285C82.7468 238.77 82.1831 238.11 81.7804 237.353C81.3777 236.596 81.1459 235.76 81.1014 234.904C81.0568 234.048 81.2006 233.193 81.5225 232.398C81.8445 231.604 82.3367 230.889 82.9647 230.305L74.5582 211.236L85.2379 213.046L91.5835 230.877C92.4946 231.996 92.9632 233.411 92.9006 234.853C92.8379 236.295 92.2483 237.664 91.2436 238.701C90.2388 239.737 88.8886 240.369 87.4489 240.477C86.0092 240.584 84.5799 240.16 83.432 239.285Z" fill="#FFB8B8"/>
<path d="M112.343 322.668L105.482 262.764C105.426 262.282 105.201 261.836 104.846 261.505C104.492 261.174 104.031 260.98 103.546 260.958C103.061 260.936 102.584 261.087 102.201 261.385C101.818 261.683 101.553 262.107 101.455 262.582L98.0533 278.965C98.0053 279.197 97.926 279.421 97.8175 279.631L77.9075 318.335C77.6143 318.904 77.1228 319.347 76.5257 319.58C75.9286 319.812 75.2671 319.818 74.6658 319.597L67.7428 317.047C67.4162 316.926 67.1168 316.742 66.862 316.506C66.6072 316.269 66.4021 315.983 66.2587 315.666C66.1152 315.349 66.0362 315.007 66.0263 314.659C66.0164 314.311 66.0758 313.965 66.2011 313.641L82.4085 271.623C82.4944 271.401 82.5405 271.165 82.545 270.927L83.3729 227.053C83.3853 226.41 83.6334 225.794 84.0702 225.321C84.507 224.849 85.1021 224.554 85.7425 224.491L128.753 220.296C129.133 220.259 129.517 220.305 129.878 220.432C130.239 220.559 130.567 220.763 130.841 221.029C131.115 221.296 131.327 221.62 131.462 221.977C131.598 222.334 131.654 222.717 131.626 223.098L124.401 322.56C124.35 323.22 124.053 323.838 123.568 324.289C123.082 324.74 122.445 324.992 121.782 324.994H114.951C114.306 324.994 113.684 324.757 113.203 324.328C112.722 323.899 112.416 323.308 112.343 322.668Z" fill="#2F2E41"/>
<path d="M111.549 145.328C119.461 145.328 125.876 138.916 125.876 131.006C125.876 123.095 119.461 116.683 111.549 116.683C103.636 116.683 97.2222 123.095 97.2222 131.006C97.2222 138.916 103.636 145.328 111.549 145.328Z" fill="#FFB8B8"/>
<path d="M123.965 153.153C123.573 152.966 123.183 152.785 122.797 152.613H122.797C118.092 150.497 112.909 149.673 107.78 150.227C102.652 150.781 97.7633 152.691 93.6192 155.762C85.9889 161.444 82.311 169.998 83.5287 179.232C86.0957 198.694 83.1567 225.093 82.8516 227.723C106.403 238.55 127.066 224.937 128.9 223.672L123.965 153.153Z" fill="#19CDFF"/>
<path d="M82.2096 227.472C81.7804 227.404 81.375 227.23 81.0298 226.966C80.6847 226.702 80.4106 226.357 80.2324 225.961L68.2103 199.331C67.7599 198.335 67.561 197.243 67.6311 196.152C67.7013 195.061 68.0383 194.004 68.6127 193.073L83.3759 169.125C83.8405 168.262 84.5558 167.561 85.4273 167.113C86.2988 166.665 87.2856 166.492 88.2577 166.616C89.2297 166.74 90.1413 167.156 90.8722 167.808C91.603 168.461 92.1189 169.32 92.3516 170.271C92.6156 171.355 92.4983 172.497 92.0194 173.505L81.0985 196.433L88.2761 220.72C88.4031 221.154 88.4162 221.613 88.3142 222.054C88.2123 222.495 87.9986 222.902 87.6938 223.236L84.5599 226.654C84.3147 226.923 84.0163 227.137 83.6837 227.283C83.351 227.43 82.9915 227.506 82.628 227.506C82.4879 227.506 82.348 227.494 82.2096 227.472Z" fill="#19CDFF"/>
<path opacity="0.2" d="M115.676 221.907L113.453 177.471L114.03 177.396L124.021 224.4H118.297C117.624 224.4 116.976 224.142 116.488 223.678C116 223.214 115.709 222.58 115.676 221.907Z" fill="black"/>
<path d="M123.593 236.086C123.03 235.439 122.616 234.677 122.379 233.853C122.142 233.029 122.089 232.164 122.223 231.317C122.357 230.47 122.676 229.663 123.156 228.953C123.636 228.242 124.266 227.646 125.001 227.205L120.738 206.806L130.809 210.793L133.313 229.553C133.972 230.837 134.137 232.318 133.776 233.716C133.415 235.113 132.554 236.33 131.356 237.135C130.158 237.941 128.706 238.279 127.275 238.085C125.844 237.892 124.534 237.18 123.593 236.086Z" fill="#FFB8B8"/>
<path d="M121.581 222.223L113.164 166.128L113.156 166.075L114.783 158.593C115.191 156.718 116.268 155.057 117.812 153.919C119.357 152.781 121.263 152.244 123.175 152.41C125.086 152.575 126.872 153.431 128.198 154.818C129.524 156.204 130.299 158.026 130.378 159.943L132.904 221.047C132.929 221.711 132.703 222.359 132.27 222.863C131.838 223.366 131.231 223.688 130.571 223.764L124.467 224.442C124.368 224.453 124.27 224.458 124.171 224.458C123.542 224.459 122.935 224.233 122.46 223.822C121.984 223.412 121.672 222.844 121.581 222.223Z" fill="#19CDFF"/>
<path d="M105.66 144.013C103.712 143.997 101.808 143.429 100.168 142.375C98.5291 141.322 97.2218 139.825 96.3977 138.06C95.0698 135.251 94.3318 133.014 94.2044 131.41C93.8618 127.099 96.2983 120.324 99.5249 116.616C103.065 112.549 108.668 111.981 114.086 111.432C115.566 111.282 117.097 111.127 118.546 110.902C119.789 110.709 121.336 110.469 122.652 110.957C123.032 111.096 123.379 111.311 123.673 111.59C123.967 111.868 124.202 112.203 124.362 112.574C124.413 112.705 124.491 112.823 124.591 112.923C124.69 113.022 124.808 113.1 124.939 113.152C125.052 113.195 125.172 113.215 125.293 113.209C125.413 113.203 125.531 113.172 125.639 113.119C125.859 113.007 126.102 112.949 126.349 112.949C126.596 112.948 126.839 113.007 127.059 113.118C127.254 113.216 127.422 113.358 127.551 113.534C127.68 113.709 127.765 113.912 127.8 114.127C127.823 114.274 127.869 114.417 127.936 114.55C128.049 114.757 128.205 114.938 128.394 115.081C128.582 115.223 128.799 115.324 129.029 115.377C129.381 115.456 129.692 115.66 129.903 115.951C130.115 116.243 130.212 116.602 130.178 116.96C130.091 117.696 130.053 118.49 130.017 119.258C129.882 122.147 129.743 125.135 126.837 125.086C126.094 125.056 125.358 124.926 124.649 124.7C123.597 124.408 122.766 124.176 121.646 124.874C119.924 125.947 119.643 128.19 119.395 130.169L119.351 130.515C119.062 132.779 117.865 135.502 115.446 135.73C114.678 135.755 113.913 135.623 113.198 135.341C112.463 135.015 111.647 134.917 110.856 135.06C109.527 135.439 108.888 137.025 108.943 138.396C108.978 138.958 109.05 139.516 109.158 140.069C109.354 140.943 109.416 141.842 109.344 142.735C109.275 143.279 108.65 143.637 107.379 143.862C106.812 143.963 106.237 144.013 105.66 144.013Z" fill="#2F2E41"/>
</g>
<defs>
<clipPath id="clip0">
<rect width="380" height="339" fill="white"/>
</clipPath>
</defs>
</svg>
