<svg width="814" height="727" viewBox="0 0 814 727" fill="none" xmlns="http://www.w3.org/2000/svg">
<path d="M153.332 727C68.6491 727 0 716.739 0 704.081C0 691.423 68.6491 681.161 153.332 681.161C238.015 681.161 306.664 691.423 306.664 704.081C306.664 716.739 238.015 727 153.332 727Z" fill="#E6E6E6"/>
<path d="M814 0H0.917725C0.917725 88.3678 18.3406 175.871 52.1918 257.512C86.0429 339.153 135.659 413.334 198.208 475.82C260.757 538.305 335.013 587.871 416.737 621.688C498.461 655.505 586.052 672.91 674.509 672.91H814V0Z" fill="#3F3D56"/>
<path d="M214.871 229.475C178.439 229.475 148.904 199.971 148.904 163.575C148.904 127.179 178.439 97.6745 214.871 97.6745C251.304 97.6745 280.838 127.179 280.838 163.575C280.838 199.971 251.304 229.475 214.871 229.475Z" fill="#F2F2F2"/>
<path d="M417.485 35.5398C414.362 35.5398 411.83 33.0108 411.83 29.8912C411.83 26.7716 414.362 24.2426 417.485 24.2426C420.607 24.2426 423.139 26.7716 423.139 29.8912C423.139 33.0108 420.607 35.5398 417.485 35.5398Z" fill="#FF6584"/>
<path d="M233.719 413.997C230.596 413.997 228.065 411.468 228.065 408.348C228.065 405.228 230.596 402.699 233.719 402.699C236.842 402.699 239.373 405.228 239.373 408.348C239.373 411.468 236.842 413.997 233.719 413.997Z" fill="#FF6584"/>
<path d="M214.871 35.5398C211.748 35.5398 209.217 33.0108 209.217 29.8912C209.217 26.7716 211.748 24.2426 214.871 24.2426C217.994 24.2426 220.526 26.7716 220.526 29.8912C220.526 33.0108 217.994 35.5398 214.871 35.5398Z" fill="#F2F2F2"/>
<path d="M135.711 307.614C132.588 307.614 130.056 305.085 130.056 301.966C130.056 298.846 132.588 296.317 135.711 296.317C138.833 296.317 141.365 298.846 141.365 301.966C141.365 305.085 138.833 307.614 135.711 307.614Z" fill="#F2F2F2"/>
<path d="M360.941 188.052C357.819 188.052 355.287 185.523 355.287 182.404C355.287 179.284 357.819 176.755 360.941 176.755C364.064 176.755 366.596 179.284 366.596 182.404C366.596 185.523 364.064 188.052 360.941 188.052Z" fill="#F2F2F2"/>
<path d="M659.678 150.395C656.556 150.395 654.024 147.866 654.024 144.746C654.024 141.627 656.556 139.098 659.678 139.098C662.801 139.098 665.333 141.627 665.333 144.746C665.333 147.866 662.801 150.395 659.678 150.395Z" fill="#F2F2F2"/>
<path d="M553.189 571.216C447.013 571.216 360.941 485.231 360.941 379.163C360.941 273.096 447.013 187.111 553.189 187.111C659.364 187.111 745.436 273.096 745.436 379.163C745.436 485.231 659.364 571.216 553.189 571.216Z" fill="#19CDFF"/>
<path opacity="0.2" d="M561.67 329.267C546.056 329.267 533.398 316.623 533.398 301.024C533.398 285.426 546.056 272.781 561.67 272.781C577.284 272.781 589.942 285.426 589.942 301.024C589.942 316.623 577.284 329.267 561.67 329.267Z" fill="black"/>
<path opacity="0.2" d="M561.67 539.207C534.606 539.207 512.666 517.29 512.666 490.253C512.666 463.216 534.606 441.298 561.67 441.298C588.734 441.298 610.674 463.216 610.674 490.253C610.674 517.29 588.734 539.207 561.67 539.207Z" fill="black"/>
<path opacity="0.2" d="M703.971 428.118C697.205 428.118 691.72 422.639 691.72 415.879C691.72 409.12 697.205 403.641 703.971 403.641C710.737 403.641 716.222 409.12 716.222 415.879C716.222 422.639 710.737 428.118 703.971 428.118Z" fill="black"/>
<path opacity="0.2" d="M220.61 136.088C217.013 136.088 214.097 133.176 214.097 129.582C214.097 125.989 217.013 123.076 220.61 123.076C224.207 123.076 227.122 125.989 227.122 129.582C227.122 133.176 224.207 136.088 220.61 136.088Z" fill="black"/>
<path opacity="0.2" d="M496.729 265.065C493.133 265.065 490.217 262.152 490.217 258.559C490.217 254.966 493.133 252.053 496.729 252.053C500.326 252.053 503.242 254.966 503.242 258.559C503.242 262.152 500.326 265.065 496.729 265.065Z" fill="black"/>
<path opacity="0.2" d="M570.152 396.109C565.467 396.109 561.67 392.316 561.67 387.636C561.67 382.957 565.467 379.163 570.152 379.163C574.836 379.163 578.633 382.957 578.633 387.636C578.633 392.316 574.836 396.109 570.152 396.109Z" fill="black"/>
<path opacity="0.2" d="M236.462 188.069C232.865 188.069 229.949 185.156 229.949 181.563C229.949 177.97 232.865 175.057 236.462 175.057C240.059 175.057 242.975 177.97 242.975 181.563C242.975 185.156 240.059 188.069 236.462 188.069Z" fill="black"/>
<path opacity="0.2" d="M411.746 348.113C408.149 348.113 405.234 345.2 405.234 341.607C405.234 338.014 408.149 335.101 411.746 335.101C415.343 335.101 418.259 338.014 418.259 341.607C418.259 345.2 415.343 348.113 411.746 348.113Z" fill="black"/>
<path opacity="0.2" d="M178.101 184.824C172.906 184.824 168.694 180.617 168.694 175.427C168.694 170.237 172.906 166.029 178.101 166.029C183.297 166.029 187.508 170.237 187.508 175.427C187.508 180.617 183.297 184.824 178.101 184.824Z" fill="black"/>
<path opacity="0.2" d="M465.53 417.359C460.334 417.359 456.123 413.151 456.123 407.961C456.123 402.771 460.334 398.564 465.53 398.564C470.725 398.564 474.937 402.771 474.937 407.961C474.937 413.151 470.725 417.359 465.53 417.359Z" fill="black"/>
<path opacity="0.2" d="M671.929 313.263C665.163 313.263 659.678 307.784 659.678 301.024C659.678 294.265 665.163 288.786 671.929 288.786C678.695 288.786 684.18 294.265 684.18 301.024C684.18 307.784 678.695 313.263 671.929 313.263Z" fill="black"/>
<path d="M511.536 489.866C531.753 489.839 551.953 488.672 572.039 486.373C632.452 479.519 688.17 463.324 728.928 440.77C770.185 417.941 791.297 391.209 788.374 365.5C786.349 347.688 769.116 331.745 735.689 316.762C735.233 316.559 734.715 316.544 734.248 316.722C733.782 316.9 733.405 317.256 733.201 317.711C732.996 318.166 732.981 318.684 733.158 319.15C733.335 319.617 733.691 319.994 734.146 320.199C766.254 334.59 782.767 349.547 784.628 365.925C787.368 390.022 766.938 415.433 727.101 437.476C686.766 459.796 631.547 475.832 571.614 482.631C511.681 489.431 454.268 486.173 409.95 473.458C366.18 460.899 340.566 440.713 337.827 416.615C335.974 400.313 344.962 383.028 363.821 366.627C364.198 366.299 364.429 365.835 364.464 365.337C364.498 364.838 364.333 364.347 364.005 363.97C363.677 363.593 363.212 363.362 362.713 363.328C362.214 363.293 361.722 363.458 361.345 363.786C341.509 381.037 332.082 399.452 334.081 417.04C337.004 442.749 363.578 464.071 408.909 477.076C438.424 485.545 473.652 489.866 511.536 489.866Z" fill="white"/>
<path d="M215.856 661.085L214.521 673.095L226.542 671.76V657.081L215.856 661.085Z" fill="#FFB8B8"/>
<path d="M90.2952 661.085L91.6313 673.095L79.6096 671.76V657.081L90.2952 661.085Z" fill="#FFB8B8"/>
<path d="M217.192 402.211L222.535 539.655C222.535 539.655 239.9 642.403 235.892 645.072C231.885 647.741 235.892 662.419 235.892 662.419L213.184 665.088C213.184 665.088 213.184 654.413 207.841 650.41C202.498 646.407 153.076 458.256 153.076 458.256L102.317 639.735C102.317 639.735 103.653 650.41 99.6455 650.41C95.6383 650.41 94.3025 665.088 94.3025 665.088H71.5947V650.41C71.5947 650.41 64.9159 649.075 68.9232 638.4C72.9304 627.725 87.6237 402.211 87.6237 402.211L217.192 402.211Z" fill="#2F2E41"/>
<path d="M223.87 661.085C223.87 661.085 230.549 657.082 233.221 659.751C235.892 662.419 257.264 689.107 257.264 689.107C257.264 689.107 286.651 707.789 259.936 713.127C233.221 718.464 213.184 693.111 211.849 690.442C210.513 687.773 213.184 666.423 214.52 669.091C215.856 671.76 219.863 670.426 221.199 669.091C222.535 667.757 223.87 661.085 223.87 661.085Z" fill="#2F2E41"/>
<path d="M82.2808 661.085C82.2808 661.085 75.602 657.082 72.9305 659.751C70.259 662.419 48.887 689.107 48.887 689.107C48.887 689.107 19.5003 707.789 46.2154 713.127C72.9305 718.464 92.9668 693.111 94.3026 690.442C95.6383 687.773 92.9668 666.423 91.6311 669.091C90.2953 671.76 86.2881 670.426 84.9523 669.091C83.6166 667.757 82.2808 661.085 82.2808 661.085Z" fill="#2F2E41"/>
<path d="M136.379 204.72C121.256 204.72 108.996 192.472 108.996 177.365C108.996 162.257 121.256 150.009 136.379 150.009C151.502 150.009 163.762 162.257 163.762 177.365C163.762 192.472 151.502 204.72 136.379 204.72Z" fill="#FFB8B8"/>
<path d="M154.411 192.71L158.419 234.077L126.361 240.749L118.346 191.376L154.411 192.71Z" fill="#FFB8B8"/>
<path d="M121.018 224.736C121.018 224.736 129.032 242.083 158.419 223.401L213.184 402.211C213.184 402.211 139.718 446.246 92.9667 412.886L108.996 232.742L121.018 224.736Z" fill="#575A89"/>
<path d="M153.076 204.72L178.455 200.717L181.126 218.064C181.126 218.064 215.856 222.067 219.863 235.411L215.856 334.157C215.856 334.157 227.878 355.507 217.192 368.851C217.192 368.851 234.556 404.88 221.199 411.552C221.199 411.552 190.477 396.874 171.776 400.877C171.776 400.877 161.09 398.208 161.09 390.202C161.09 382.195 153.076 204.72 153.076 204.72Z" fill="#2F2E41"/>
<path d="M122.353 207.389L107.66 211.392L106.324 230.073C106.324 230.073 70.2589 252.758 68.9232 266.102C67.5874 279.446 95.6382 343.497 95.6382 343.497C95.6382 343.497 84.9522 362.179 88.9595 374.189C88.9595 374.189 71.5947 408.883 82.2807 418.224C82.2807 418.224 102.317 423.562 104.989 415.555C107.66 407.549 131.704 315.475 121.018 271.44C121.018 271.44 131.704 215.395 122.353 207.389Z" fill="#2F2E41"/>
<path d="M106.992 250.846H107.495V237.086C107.495 236.041 107.701 235.005 108.102 234.039C108.502 233.073 109.09 232.195 109.83 231.455C110.57 230.716 111.449 230.129 112.416 229.729C113.383 229.329 114.42 229.123 115.467 229.123H144.647C145.693 229.123 146.73 229.329 147.697 229.729C148.664 230.129 149.543 230.716 150.283 231.455C151.024 232.195 151.611 233.073 152.011 234.039C152.412 235.005 152.618 236.041 152.618 237.086V312.57C152.618 313.616 152.412 314.652 152.011 315.618C151.611 316.584 151.024 317.462 150.283 318.201C149.543 318.941 148.664 319.527 147.697 319.928C146.73 320.328 145.693 320.534 144.647 320.534H115.467C114.42 320.534 113.383 320.328 112.416 319.928C111.449 319.527 110.57 318.941 109.83 318.201C109.09 317.462 108.502 316.584 108.102 315.618C107.701 314.652 107.495 313.616 107.495 312.57V260.64H106.992V250.846Z" fill="white"/>
<path d="M94.3026 304.8C94.3026 304.8 104.989 270.105 121.018 280.781C137.047 291.456 110.332 320.813 110.332 320.813L94.3026 304.8Z" fill="#FFB8B8"/>
<path d="M167.769 279.446C167.769 279.446 149.068 256.761 139.718 267.437C130.368 278.112 155.747 302.131 155.747 302.131L167.769 279.446Z" fill="#FFB8B8"/>
<path d="M215.856 234.077C215.856 234.077 222.535 232.742 226.542 244.752C230.549 256.761 245.243 302.131 245.243 310.137C245.243 318.144 239.9 350.169 210.513 344.832C181.126 339.494 146.397 302.131 146.397 302.131L165.097 274.109L205.17 298.128L215.856 234.077Z" fill="#2F2E41"/>
<path opacity="0.1" d="M210.085 268.671L204.502 297.46L163.094 273.442L201.831 288.12L210.371 266.953L210.085 268.671Z" fill="black"/>
<path opacity="0.1" d="M92.2986 297.46L86.9557 301.464L84.2843 282.782L92.2986 297.46Z" fill="black"/>
<path opacity="0.1" d="M216.524 348.168C216.524 348.168 177.289 337.505 158.838 314.147C158.838 314.147 177.787 345.499 216.524 348.168Z" fill="black"/>
<path opacity="0.1" d="M117.678 324.149C117.678 324.149 109.416 364.541 88.1681 365.695C88.1681 365.695 113.671 373.522 117.678 324.149Z" fill="black"/>
<path d="M74.2662 260.765C74.2662 260.765 70.2589 263.433 67.5874 275.443C64.9159 287.453 47.5512 332.822 54.2299 343.498C60.9087 354.173 71.5947 378.192 94.3025 362.179L117.01 320.813L94.3025 299.462L84.9522 306.134L74.2662 260.765Z" fill="#2F2E41"/>
<path d="M162.666 184.302C162.666 184.302 185.632 147.12 161.171 145.186C153.008 144.616 145.037 142.446 137.712 138.801C129.604 134.679 119.397 131.546 113.966 137.891C111.596 140.793 108.833 143.35 105.756 145.489C100.985 148.65 95.4645 153.774 98.5214 159.271L103.533 168.282L110.549 186.305C108.915 178.531 108.874 172.004 113.054 168.783C113.054 168.783 136.379 178.699 148.133 160.773C161.292 150.91 165.478 181.954 162.666 184.302Z" fill="#2F2E41"/>
<path d="M129.7 262.766C126.011 262.766 123.021 259.779 123.021 256.094C123.021 252.409 126.011 249.422 129.7 249.422C133.388 249.422 136.379 252.409 136.379 256.094C136.379 259.779 133.388 262.766 129.7 262.766Z" fill="#19CDFF"/>
</svg>
