<svg width="398" height="236" viewBox="0 0 398 236" fill="none" xmlns="http://www.w3.org/2000/svg">
<g clip-path="url(#clip0)">
<path d="M275.755 118.53L278.23 117.563C278.467 117.47 278.701 117.369 278.948 117.273C274.368 115.59 270.498 112.403 267.975 108.236C265.451 104.068 264.424 99.1683 265.063 94.3414C265.702 89.5144 267.968 85.0479 271.489 81.6763C275.01 78.3046 279.576 76.2285 284.437 75.7893L282.713 84.4607L289.258 75.8896H289.315C294.965 76.6644 300.074 79.6458 303.52 84.1782C306.967 88.7106 308.467 94.4228 307.692 100.059C307.638 100.464 307.552 100.858 307.477 101.255C309.492 99.668 311.381 97.9158 312.796 95.8805C315.67 91.7455 316.643 86.6501 317.635 80.4117C319.6 68.0566 321.371 55.5654 322.965 43.0814C318.068 41.6074 313.858 38.4393 311.093 34.1464C308.328 29.8534 307.188 24.7173 307.879 19.6613C307.969 19.0091 308.094 18.3749 308.238 17.7478C308.274 17.5901 308.31 17.4325 308.349 17.2784C308.504 16.6728 308.676 16.078 308.877 15.4868C308.91 15.39 308.953 15.3004 308.985 15.2073C309.165 14.7164 309.344 14.2326 309.578 13.774C309.657 13.5948 309.736 13.4157 309.819 13.2472C310.066 12.7348 310.329 12.2332 310.616 11.7459C310.713 11.5846 310.817 11.4305 310.914 11.2693C311.137 10.911 311.37 10.5526 311.611 10.2194C311.74 10.0402 311.866 9.86107 311.999 9.68549L312.096 9.54575C315.146 5.56359 319.498 2.77355 324.397 1.66066C329.295 0.547762 334.429 1.18239 338.907 3.45422L336.666 14.7379L343.131 6.26707C346.609 9.20628 349.054 13.1777 350.109 17.6013C351.163 22.0249 350.772 26.6689 348.994 30.8553H349.019C348.958 30.9987 348.882 31.1348 348.821 31.2781C348.703 31.5433 348.58 31.8049 348.462 32.0665C348.297 32.3997 348.103 32.7258 347.941 33.0483C347.805 33.2919 347.672 33.5356 347.524 33.7649C347.312 34.1232 347.083 34.4457 346.853 34.779C346.716 34.9725 346.59 35.1731 346.45 35.3631C346.091 35.8611 345.689 36.3377 345.279 36.7964C345.136 36.9576 344.981 37.1045 344.83 37.2622C344.539 37.5703 344.248 37.8749 343.939 38.1652C343.749 38.3443 343.548 38.5235 343.35 38.6883C343.067 38.9391 342.776 39.1828 342.478 39.405C342.266 39.5734 342.05 39.7346 341.835 39.8923C341.522 40.118 341.206 40.3294 340.886 40.5409C340.671 40.6806 340.455 40.8203 340.236 40.9529C339.877 41.1715 339.5 41.3722 339.123 41.5692C338.932 41.666 338.763 41.7735 338.551 41.8666C337.984 42.1426 337.402 42.397 336.809 42.6227C336.698 42.6657 336.579 42.698 336.468 42.7374C335.972 42.9165 335.473 43.0957 334.967 43.2211C334.747 43.282 334.525 43.3322 334.302 43.386C333.889 43.4863 333.472 43.5794 333.052 43.6583C332.813 43.7013 332.565 43.7407 332.308 43.7765C331.895 43.8374 331.479 43.884 331.058 43.9199C330.811 43.9414 330.566 43.9629 330.315 43.9772C329.862 43.9987 329.406 44.0023 328.95 43.9987C328.92 43.9969 328.89 43.9969 328.86 43.9987C328.185 49.2541 327.476 54.5095 326.734 59.765C328.476 57.419 330.68 55.4527 333.21 53.9868C335.741 52.5208 338.546 51.586 341.452 51.2397C344.358 50.8935 347.304 51.1431 350.11 51.9732C352.916 52.8033 355.522 54.1964 357.769 56.0671L352.137 65.5913L361.192 59.6467C364.616 64.1671 366.102 69.8582 365.323 75.4704C365.057 77.4408 364.513 79.3638 363.707 81.1821C361.978 85.1189 359.103 88.4466 355.455 90.7332C351.807 93.0198 347.554 94.1599 343.248 94.0054C338.943 93.8508 334.783 92.4089 331.309 89.8667C327.835 87.3245 325.207 83.7993 323.767 79.7488C323.684 80.2791 323.605 80.8237 323.522 81.3469C322.646 86.8472 321.557 93.6948 317.692 99.2631C315.074 103.047 311.467 105.842 307.961 108.3C305.682 109.901 303.349 111.426 300.964 112.876C298.461 115.192 295.44 116.879 292.153 117.799C288.321 119.756 284.407 121.525 280.41 123.106L277.914 124.081C275.669 124.955 273.37 125.851 271.089 126.804C271.448 126.836 271.807 126.865 272.167 126.911C276.686 127.531 280.892 129.567 284.176 132.726C287.46 135.885 289.652 140.004 290.436 144.487L275.238 152.768L290.389 152.091C289.783 155.442 288.375 158.599 286.287 161.293C282.861 165.717 277.839 168.632 272.291 169.418C266.742 170.203 261.106 168.798 256.581 165.499L257.335 166.901C257.838 167.825 258.334 168.746 258.815 169.66C265.399 182.108 265.877 192.858 260.162 199.935L255.492 196.19C261.056 189.303 256.642 178.356 253.517 172.444C253.043 171.548 252.554 170.652 252.08 169.735C247.852 161.913 243.057 153.048 244.978 143.613C247.852 129.388 263.316 123.368 275.755 118.53Z" fill="#7FFF7C"/>
<path d="M96.8419 185.974L94.9093 185.218C94.7226 185.147 94.5501 185.064 94.3562 184.992C97.9319 183.677 100.953 181.187 102.922 177.933C104.892 174.678 105.693 170.852 105.194 167.082C104.695 163.313 102.926 159.826 100.177 157.193C97.4278 154.559 93.8627 152.937 90.0672 152.593L91.4143 159.365L86.3064 152.672H86.2597C84.0735 152.969 81.9676 153.694 80.0622 154.804C78.1569 155.914 76.4894 157.387 75.1551 159.14C73.8208 160.893 72.8458 162.891 72.2858 165.02C71.7258 167.149 71.5918 169.367 71.8914 171.548C71.9345 171.867 72.0028 172.172 72.0603 172.483C70.4755 171.295 69.0761 169.878 67.9078 168.28C65.67 165.055 64.9013 161.071 64.1254 156.201C62.606 146.551 61.2266 136.798 59.9873 127.058C63.8106 125.906 67.0963 123.43 69.2539 120.077C71.4115 116.724 72.2996 112.714 71.7585 108.766C71.6867 108.257 71.5897 107.763 71.4747 107.272L71.3885 106.913C71.2664 106.44 71.1335 105.975 70.9754 105.523C70.9503 105.448 70.918 105.376 70.8892 105.305C70.7492 104.921 70.5947 104.545 70.4295 104.176C70.3648 104.04 70.3037 103.9 70.2391 103.764C70.0451 103.366 69.8404 102.975 69.6177 102.596C69.5422 102.467 69.4596 102.345 69.3842 102.237C69.2082 101.958 69.025 101.682 68.8382 101.417C68.7376 101.277 68.6406 101.134 68.5364 100.998L68.461 100.89C66.0791 97.7805 62.6811 95.6007 58.8566 94.7289C55.0321 93.8571 51.0224 94.3483 47.5229 96.1171L49.2758 104.932L44.2218 98.3173C41.506 100.613 39.5969 103.714 38.7729 107.169C37.949 110.623 38.2535 114.25 39.6419 117.52H39.624C39.6707 117.631 39.7281 117.738 39.7784 117.85C39.8718 118.057 39.9652 118.262 40.0658 118.466C40.1951 118.724 40.3316 118.978 40.4753 119.229C40.5795 119.423 40.6836 119.613 40.7986 119.799C40.9638 120.068 41.1578 120.329 41.323 120.591C41.4308 120.741 41.5278 120.899 41.6391 121.046C41.9265 121.433 42.2318 121.805 42.5515 122.167C42.6629 122.293 42.785 122.407 42.9107 122.526C43.137 122.766 43.3669 123.002 43.6076 123.242C43.7548 123.386 43.9129 123.518 44.0673 123.651C44.2901 123.849 44.5164 124.039 44.7462 124.221C44.9115 124.35 45.0803 124.475 45.2491 124.6C45.4934 124.776 45.7412 124.959 45.9891 125.106C46.1579 125.217 46.3268 125.324 46.4992 125.428C46.7829 125.6 47.0739 125.754 47.3684 125.908C47.5193 125.987 47.663 126.07 47.8139 126.145C48.2593 126.36 48.7119 126.557 49.1753 126.732C49.2615 126.768 49.3549 126.79 49.4411 126.822C49.8254 126.962 50.217 127.091 50.6157 127.202C50.7845 127.248 50.9749 127.288 51.1329 127.327C51.4562 127.406 51.7795 127.481 52.11 127.542L52.6883 127.635C53.0116 127.682 53.3384 127.718 53.6653 127.746C53.8593 127.764 54.0497 127.779 54.2472 127.789C54.6064 127.807 54.9657 127.811 55.3249 127.807H55.3931C55.9199 131.921 56.4731 136.031 57.0526 140.137C55.6946 138.303 53.975 136.764 51.9994 135.616C50.0238 134.468 47.8338 133.735 45.5639 133.462C43.294 133.189 40.9921 133.381 38.7995 134.028C36.6069 134.674 34.5699 135.761 32.8134 137.221L37.1742 144.616L30.105 139.976C28.779 141.723 27.8111 143.714 27.2564 145.835C26.7017 147.955 26.5711 150.164 26.8722 152.335C27.0807 153.875 27.5076 155.379 28.1402 156.799C29.4904 159.874 31.7357 162.472 34.5848 164.258C37.4338 166.044 40.7551 166.934 44.1177 166.814C47.4803 166.693 50.7289 165.567 53.4422 163.582C56.1554 161.597 58.208 158.845 59.3336 155.681C59.3982 156.094 59.4593 156.513 59.524 156.928C60.2065 161.228 61.0578 166.575 64.0751 170.932C66.1226 173.884 68.9388 176.067 71.6759 177.987C73.4576 179.239 75.2787 180.433 77.1394 181.57C79.0957 183.379 81.4545 184.698 84.0218 185.419C87.0104 186.945 90.0708 188.336 93.1959 189.561L95.1428 190.324C96.8957 191.005 98.6918 191.704 100.463 192.449C100.182 192.474 99.8987 192.496 99.6149 192.535C96.0868 193.017 92.8035 194.606 90.239 197.07C87.6745 199.535 85.9615 202.749 85.3473 206.248L97.2011 212.698L85.3688 212.171C85.8897 214.956 87.1094 217.563 88.914 219.75C90.7186 221.936 93.0492 223.631 95.6883 224.676C98.3274 225.721 101.189 226.082 104.006 225.725C106.822 225.368 109.502 224.305 111.796 222.634C111.598 222.993 111.404 223.351 111.207 223.727C110.815 224.444 110.427 225.161 110.05 225.877C104.91 235.599 104.536 243.998 109.001 249.527L112.64 246.603C108.293 241.228 111.742 232.675 114.184 228.056C114.544 227.357 114.935 226.651 115.319 225.942C118.621 219.85 122.363 212.91 120.873 205.539C118.642 194.452 106.555 189.765 96.8419 185.974Z" fill="#7FFF7C"/>
<path d="M30.5325 245.926C29.4549 243.951 30.6762 241.533 32.0699 239.77C33.4636 238.007 35.1627 236.186 35.1267 233.932C35.0764 230.708 31.6424 228.805 28.9017 227.096C26.8681 225.826 24.9921 224.322 23.3125 222.613C22.6104 221.954 22.0293 221.178 21.5955 220.32C21.0279 219.058 21.0459 217.625 21.0818 216.242C21.2015 211.641 21.429 207.045 21.7643 202.454" stroke="#3F3D56" stroke-width="4" stroke-miterlimit="10"/>
<path d="M16.563 202.199C16.6018 201.358 16.8524 200.539 17.2919 199.82C17.7313 199.1 18.3454 198.502 19.0774 198.082L20.2053 200.307L20.173 197.613C20.7109 197.453 21.272 197.385 21.8325 197.412C22.825 197.46 23.7809 197.801 24.5795 198.391C25.3781 198.981 25.9836 199.793 26.3196 200.726C26.6556 201.659 26.707 202.671 26.4673 203.633C26.2276 204.594 25.7076 205.464 24.9729 206.132C24.2383 206.799 23.3218 207.234 22.3393 207.383C21.3568 207.531 20.3523 207.386 19.4525 206.965C18.5528 206.544 17.7981 205.867 17.2839 205.019C16.7696 204.171 16.5187 203.189 16.563 202.199Z" fill="#19CDFF"/>
<path d="M25.5539 236.24C26.0548 237.235 26.8732 238.035 27.8801 238.515C28.887 238.994 30.0252 239.126 31.1156 238.89C32.206 238.654 33.1866 238.062 33.903 237.209C34.6195 236.355 35.031 235.288 35.0728 234.176C35.1087 233.481 34.9973 232.786 34.746 232.137C34.3846 231.177 33.7368 230.35 32.8898 229.768C32.0428 229.186 31.0374 228.878 30.009 228.883C28.9807 228.889 27.9788 229.209 27.1385 229.801C26.2983 230.392 25.6599 231.226 25.3096 232.191L28.4599 234.746L24.9971 233.943C24.9952 234.742 25.1861 235.53 25.5539 236.24Z" fill="#19CDFF"/>
<path d="M28.0432 226.476C29.2994 226.571 30.5455 226.192 31.535 225.414C32.5245 224.636 33.1854 223.516 33.3867 222.275C33.5881 221.035 33.3154 219.764 32.6226 218.715C31.9298 217.665 30.8672 216.913 29.6452 216.607L29.6704 218.682L28.5281 216.428C27.192 216.366 25.8858 216.836 24.8969 217.734C23.908 218.633 23.3174 219.886 23.255 221.219C23.1926 222.552 23.6635 223.855 24.5642 224.841C25.4648 225.828 26.7214 226.417 28.0576 226.479L28.0432 226.476Z" fill="#19CDFF"/>
<path d="M15.8051 218.352C16.4655 218.383 17.1255 218.284 17.7476 218.061C18.3696 217.838 18.9415 217.494 19.4304 217.05C19.9194 216.606 20.316 216.071 20.5975 215.474C20.879 214.877 21.0399 214.231 21.071 213.572C21.1021 212.914 21.0029 212.255 20.7789 211.635C20.555 211.014 20.2107 210.444 19.7657 209.956C19.3208 209.468 18.7838 209.073 18.1856 208.792C17.5874 208.511 16.9396 208.35 16.2792 208.319C15.3364 208.273 14.3997 208.494 13.578 208.957L14.4688 211.394L12.6333 209.638C11.6515 210.535 11.0664 211.784 11.0061 213.11C10.9817 213.574 11.0253 214.039 11.1354 214.49C11.3861 215.553 11.9778 216.505 12.8206 217.203C13.6634 217.9 14.7113 218.303 15.8051 218.352Z" fill="#19CDFF"/>
<path opacity="0.1" d="M17.2419 203.539C18.4057 203.668 19.5372 204.03 20.7046 204.102C21.872 204.173 23.1544 203.894 23.8944 202.991C24.2931 202.5 24.4907 201.884 24.8247 201.353C25.1447 200.858 25.5812 200.448 26.0963 200.16C26.4005 200.794 26.5676 201.485 26.5868 202.188C26.606 202.891 26.477 203.59 26.2079 204.24C25.9389 204.89 25.5359 205.476 25.0251 205.96C24.5143 206.445 23.9071 206.817 23.243 207.052C22.5788 207.288 21.8724 207.381 21.1697 207.326C20.467 207.272 19.7837 207.071 19.164 206.736C18.5443 206.401 18.0021 205.94 17.5726 205.382C17.143 204.825 16.8358 204.183 16.6707 203.5C16.8611 203.507 17.0515 203.521 17.2419 203.539Z" fill="black"/>
<path opacity="0.1" d="M15.805 218.353C16.6745 218.397 17.5405 218.215 18.3184 217.825C19.0962 217.435 19.7592 216.85 20.2426 216.127C20.7259 215.405 21.013 214.57 21.0757 213.704C21.1384 212.838 20.9747 211.97 20.6004 211.186C20.2003 211.456 19.8563 211.8 19.5875 212.2C19.2283 212.741 19.0092 213.365 18.5889 213.863C17.8022 214.784 16.4624 215.085 15.2447 215.027C14.027 214.97 12.8524 214.63 11.6526 214.518C11.4838 214.518 11.315 214.49 11.1461 214.486C11.3957 215.548 11.9855 216.5 12.8262 217.198C13.6669 217.896 14.7127 218.301 15.805 218.353Z" fill="black"/>
<path opacity="0.1" d="M28.0432 226.476C28.9049 226.52 29.7634 226.342 30.5363 225.96C31.3092 225.577 31.9705 225.003 32.4564 224.291C32.9424 223.58 33.2368 222.756 33.3113 221.899C33.3858 221.041 33.2378 220.179 32.8817 219.395C32.4629 219.667 32.0976 220.013 31.8041 220.416C31.4125 220.968 31.1683 221.603 30.7265 222.111C29.8787 223.057 28.4491 223.391 27.1596 223.358C25.87 223.326 24.7098 223.025 23.4669 222.932C23.7703 223.921 24.3729 224.793 25.1921 225.427C26.0113 226.062 27.0072 226.428 28.0432 226.476Z" fill="black"/>
<path opacity="0.1" d="M25.5539 236.24C26.0548 237.235 26.8732 238.035 27.8801 238.515C28.887 238.994 30.0252 239.126 31.1156 238.89C32.206 238.654 33.1866 238.062 33.903 237.209C34.6195 236.355 35.031 235.288 35.0729 234.176C35.1087 233.481 34.9973 232.786 34.746 232.137C34.3306 232.408 33.9578 232.739 33.6396 233.119C33.1583 233.703 32.8458 234.362 32.289 234.911C31.2581 235.921 29.595 236.344 28.115 236.376C27.2594 236.38 26.4043 236.334 25.5539 236.24Z" fill="black"/>
<path d="M378.962 249.15C377.884 247.176 379.106 244.757 380.499 242.994C381.893 241.232 383.592 239.411 383.556 237.157C383.506 233.932 380.072 232.03 377.331 230.321C375.298 229.051 373.422 227.546 371.742 225.838C371.04 225.179 370.459 224.403 370.025 223.545C369.458 222.283 369.475 220.85 369.511 219.467C369.629 214.866 369.856 210.27 370.194 205.678" stroke="#3F3D56" stroke-width="4" stroke-miterlimit="10"/>
<path d="M364.993 205.424C365.031 204.582 365.282 203.764 365.721 203.044C366.161 202.325 366.775 201.727 367.507 201.307L368.635 203.532L368.603 200.837C369.14 200.678 369.702 200.61 370.262 200.637C371.254 200.686 372.21 201.027 373.008 201.617C373.806 202.208 374.411 203.021 374.746 203.954C375.082 204.886 375.133 205.898 374.893 206.859C374.653 207.821 374.132 208.69 373.398 209.357C372.663 210.024 371.746 210.459 370.764 210.607C369.782 210.756 368.777 210.61 367.878 210.189C366.978 209.768 366.224 209.091 365.71 208.243C365.196 207.395 364.945 206.414 364.989 205.424H364.993Z" fill="#19CDFF"/>
<path d="M373.984 239.465C374.485 240.46 375.303 241.26 376.31 241.74C377.317 242.219 378.455 242.352 379.545 242.115C380.636 241.879 381.616 241.287 382.333 240.434C383.049 239.58 383.461 238.514 383.502 237.401C383.538 236.706 383.427 236.011 383.176 235.362C382.814 234.402 382.166 233.575 381.319 232.993C380.472 232.411 379.467 232.103 378.439 232.108C377.41 232.114 376.408 232.435 375.568 233.026C374.728 233.617 374.09 234.452 373.739 235.416L376.89 237.971L373.427 237.168C373.425 237.967 373.616 238.755 373.984 239.465Z" fill="#19CDFF"/>
<path d="M376.473 229.701C377.729 229.795 378.975 229.416 379.965 228.639C380.954 227.861 381.615 226.741 381.816 225.5C382.018 224.26 381.745 222.989 381.052 221.939C380.359 220.89 379.297 220.138 378.075 219.832L378.1 221.907L376.958 219.653C375.622 219.591 374.315 220.061 373.327 220.959C372.338 221.858 371.747 223.111 371.685 224.444C371.622 225.777 372.093 227.08 372.994 228.066C373.894 229.053 375.151 229.642 376.487 229.704L376.473 229.701Z" fill="#19CDFF"/>
<path d="M364.235 221.577C365.568 221.64 366.872 221.172 367.86 220.275C368.848 219.379 369.438 218.128 369.501 216.797C369.563 215.467 369.094 214.166 368.195 213.181C367.297 212.196 366.042 211.607 364.709 211.544C363.766 211.497 362.829 211.719 362.008 212.182L362.898 214.619L361.063 212.863C360.081 213.76 359.496 215.008 359.436 216.335C359.411 216.799 359.455 217.263 359.565 217.715C359.816 218.778 360.407 219.73 361.25 220.427C362.093 221.125 363.141 221.528 364.235 221.577Z" fill="#19CDFF"/>
<path opacity="0.1" d="M365.671 206.764C366.835 206.893 367.967 207.255 369.134 207.327C370.302 207.399 371.584 207.119 372.324 206.216C372.723 205.725 372.92 205.109 373.254 204.578C373.574 204.083 374.011 203.674 374.526 203.385C374.83 204.02 374.997 204.71 375.016 205.413C375.036 206.116 374.906 206.815 374.637 207.465C374.368 208.115 373.965 208.701 373.455 209.186C372.944 209.67 372.337 210.042 371.673 210.277C371.008 210.513 370.302 210.606 369.599 210.552C368.897 210.497 368.213 210.296 367.594 209.961C366.974 209.626 366.432 209.165 366.002 208.607C365.573 208.05 365.265 207.408 365.1 206.725C365.291 206.732 365.481 206.746 365.671 206.764Z" fill="black"/>
<path opacity="0.1" d="M364.235 221.577C365.104 221.621 365.97 221.439 366.748 221.049C367.526 220.659 368.189 220.075 368.672 219.352C369.156 218.63 369.443 217.795 369.505 216.929C369.568 216.063 369.404 215.195 369.03 214.411C368.63 214.68 368.286 215.025 368.017 215.425C367.658 215.966 367.439 216.589 367.019 217.088C366.232 218.008 364.892 218.309 363.674 218.252C362.457 218.195 361.282 217.854 360.082 217.743C359.913 217.743 359.745 217.715 359.576 217.711C359.825 218.773 360.415 219.725 361.256 220.423C362.097 221.121 363.142 221.526 364.235 221.577Z" fill="black"/>
<path opacity="0.1" d="M376.473 229.701C377.334 229.745 378.193 229.567 378.966 229.184C379.739 228.802 380.4 228.227 380.886 227.516C381.372 226.805 381.666 225.981 381.741 225.124C381.815 224.266 381.667 223.404 381.311 222.62C380.893 222.892 380.527 223.238 380.234 223.641C379.842 224.193 379.598 224.827 379.156 225.336C378.308 226.282 376.879 226.615 375.589 226.583C374.3 226.551 373.139 226.25 371.896 226.157C372.2 227.146 372.802 228.018 373.622 228.652C374.441 229.287 375.437 229.653 376.473 229.701Z" fill="black"/>
<path opacity="0.1" d="M373.984 239.465C374.484 240.46 375.303 241.26 376.31 241.739C377.317 242.219 378.455 242.351 379.545 242.115C380.636 241.878 381.616 241.287 382.333 240.434C383.049 239.58 383.461 238.513 383.502 237.401C383.538 236.706 383.427 236.011 383.176 235.362C382.76 235.633 382.387 235.964 382.069 236.344C381.588 236.928 381.275 237.587 380.719 238.135C379.688 239.146 378.025 239.569 376.545 239.601C375.689 239.604 374.834 239.559 373.984 239.465Z" fill="black"/>
<path d="M267.813 118.659C265.438 117.847 263.043 117.095 260.629 116.402C261.026 114.78 261.396 113.149 261.739 111.511C267.177 85.1702 263.621 63.9502 251.476 56.9664C239.831 50.2658 220.786 57.2531 201.547 73.9475C199.65 75.6005 197.798 77.2966 195.99 79.0357C194.776 77.8771 193.542 76.7412 192.29 75.628C172.135 57.7727 151.944 50.2514 139.796 57.2567C128.161 63.9753 124.709 83.9232 129.612 108.888C130.091 111.36 130.641 113.818 131.261 116.262C128.405 117.072 125.643 117.935 122.999 118.856C99.3671 127.058 84.2733 139.958 84.2733 153.32C84.2733 167.119 100.477 180.961 125.093 189.353C127.091 190.029 129.102 190.657 131.128 191.238C130.472 193.866 129.888 196.515 129.375 199.186C124.705 223.717 128.355 243.195 139.957 249.871C151.944 256.772 172.06 249.677 191.643 232.599C193.192 231.248 194.743 229.815 196.313 228.317C198.272 230.202 200.282 232.032 202.344 233.807C221.317 250.093 240.061 256.672 251.649 249.975C263.621 243.062 267.511 222.136 262.461 196.681C262.078 194.736 261.631 192.752 261.121 190.729C262.536 190.313 263.92 189.882 265.273 189.436C290.863 180.979 307.516 167.305 307.516 153.32C307.516 139.908 291.934 126.94 267.824 118.659H267.813Z" fill="#53C1DE"/>
<path d="M262.263 180.406C261.042 180.811 259.792 181.198 258.513 181.578C255.393 171.928 251.616 162.503 247.209 153.367C251.448 144.353 255.078 135.065 258.075 125.568C260.356 126.227 262.576 126.922 264.709 127.657C285.367 134.748 297.968 145.236 297.968 153.32C297.968 161.92 284.358 173.103 262.263 180.406ZM253.096 198.53C255.331 209.785 255.647 219.961 254.174 227.913C252.845 235.061 250.172 239.827 246.868 241.737C239.831 245.797 224.787 240.519 208.562 226.59C206.701 224.992 204.83 223.29 202.948 221.484C209.712 214.013 215.963 206.096 221.659 197.785C231.832 196.925 241.934 195.368 251.893 193.126C252.348 194.961 252.752 196.753 253.104 198.501L253.096 198.53ZM160.378 241.042C153.503 243.464 148.029 243.532 144.72 241.629C137.68 237.577 134.752 221.921 138.747 200.959C139.226 198.482 139.768 196.018 140.374 193.567C150.292 195.691 160.343 197.144 170.457 197.914C176.319 206.196 182.721 214.084 189.621 221.527C188.235 222.867 186.817 224.171 185.368 225.437C176.708 232.99 168.026 238.336 160.378 241.042ZM128.179 180.352C117.291 176.64 108.304 171.817 102.14 166.557C96.6048 161.827 93.8102 157.129 93.8102 153.32C93.8102 145.211 105.93 134.866 126.139 127.84C128.677 126.958 131.238 126.154 133.822 125.428C136.824 135.031 140.459 144.425 144.702 153.549C140.406 162.805 136.727 172.333 133.689 182.072C131.836 181.544 129.999 180.971 128.179 180.352ZM138.973 107.06C134.778 85.672 137.561 69.5366 144.573 65.4947C152.041 61.1948 168.554 67.3293 185.961 82.7481C187.074 83.7334 188.191 84.7654 189.309 85.8296C182.458 93.2277 176.106 101.071 170.296 109.307C160.277 110.203 150.326 111.746 140.507 113.926C139.935 111.652 139.423 109.364 138.973 107.064V107.06ZM235.28 130.778C233.098 127.018 230.836 123.306 228.494 119.641C235.617 120.541 242.439 121.73 248.847 123.192C246.791 129.699 244.406 136.099 241.702 142.366C239.641 138.46 237.5 134.598 235.28 130.778ZM195.997 92.6271C200.639 97.6758 205.023 102.955 209.133 108.444C200.342 108.03 191.548 108.03 182.75 108.444C187.085 102.739 191.529 97.4358 195.997 92.6307V92.6271ZM156.484 130.842C154.293 134.633 152.192 138.472 150.18 142.359C147.404 135.791 145.029 129.33 143.09 123.092C149.458 121.659 156.251 120.508 163.327 119.623C160.952 123.312 158.668 127.051 156.477 130.842H156.484ZM163.528 187.691C156.621 186.943 149.758 185.841 142.964 184.391C144.936 178.045 147.364 171.444 150.202 164.733C152.221 168.624 154.329 172.465 156.528 176.257C158.764 180.124 161.095 183.935 163.521 187.691H163.528ZM196.266 214.683C191.74 209.832 187.232 204.457 182.836 198.648C187.11 198.818 191.464 198.903 195.896 198.903C200.446 198.903 204.938 198.802 209.37 198.602C205.279 204.182 200.903 209.55 196.259 214.683H196.266ZM241.774 164.392C244.618 170.787 247.126 177.324 249.289 183.978C242.411 185.522 235.457 186.705 228.455 187.522C230.814 183.789 233.098 180.011 235.309 176.188C237.555 172.304 239.71 168.372 241.774 164.392ZM227.047 171.437C223.665 177.294 220.096 183.04 216.339 188.672C209.715 189.145 202.872 189.389 195.896 189.389C188.921 189.389 182.193 189.174 175.684 188.751C171.831 183.138 168.192 177.384 164.768 171.491C161.343 165.598 158.169 159.616 155.245 153.546C158.183 147.447 161.348 141.463 164.739 135.594C168.125 129.727 171.733 123.994 175.562 118.394C182.204 117.893 189.007 117.631 195.889 117.631C202.772 117.631 209.618 117.896 216.253 118.398C220.039 123.98 223.631 129.691 227.029 135.529C230.427 141.368 233.635 147.324 236.652 153.399C233.671 159.519 230.472 165.527 227.058 171.423L227.047 171.437ZM246.72 65.208C254.196 69.5079 257.102 86.8509 252.407 109.594C252.098 111.072 251.763 112.548 251.401 114.019C241.567 111.795 231.597 110.223 221.555 109.314C215.8 101.07 209.496 93.2222 202.685 85.8225C204.362 84.2124 206.073 82.6465 207.818 81.1248C224.299 66.8169 239.702 61.1697 246.72 65.208Z" fill="#3F3D56"/>
<path d="M195.889 133.433C199.832 133.433 203.687 134.599 206.965 136.785C210.244 138.97 212.799 142.076 214.308 145.71C215.817 149.344 216.211 153.342 215.442 157.2C214.673 161.058 212.774 164.601 209.986 167.382C207.198 170.164 203.646 172.058 199.779 172.825C195.911 173.592 191.903 173.199 188.26 171.693C184.617 170.188 181.504 167.639 179.313 164.369C177.123 161.098 175.953 157.253 175.953 153.32C175.953 150.708 176.468 148.122 177.47 145.709C178.472 143.296 179.94 141.104 181.791 139.257C183.643 137.41 185.841 135.945 188.26 134.946C190.679 133.947 193.271 133.433 195.889 133.433Z" fill="#53C1DE"/>
<path d="M200.889 7.30983C200.889 8.48628 200.54 9.6363 199.885 10.6145C199.229 11.5926 198.298 12.355 197.209 12.8053C196.119 13.2555 194.92 13.3732 193.763 13.1437C192.607 12.9142 191.544 12.3477 190.71 11.5158C189.876 10.684 189.308 9.62411 189.078 8.47027C188.848 7.31643 188.966 6.12045 189.418 5.03356C189.869 3.94667 190.633 3.01769 191.614 2.36409C192.594 1.7105 193.747 1.36164 194.927 1.36164C195.711 1.35784 196.488 1.50911 197.213 1.80669C197.938 2.10427 198.597 2.54226 199.151 3.09536C199.706 3.64846 200.145 4.30569 200.443 5.02908C200.742 5.75246 200.893 6.52764 200.889 7.30983Z" fill="#3F3D56"/>
<path d="M190.164 8.81122C189.691 7.95918 189.435 7.00451 189.418 6.03086C189.401 5.0572 189.624 4.09427 190.067 3.22641C190.509 2.35855 191.159 1.61225 191.958 1.05288C192.757 0.493515 193.681 0.138153 194.65 0.0179266C193.829 -0.0107722 193.01 0.130277 192.246 0.432218C191.481 0.734159 190.788 1.19047 190.209 1.77249C189.63 2.35452 189.178 3.04968 188.881 3.81433C188.584 4.57899 188.449 5.39661 188.484 6.21586C188.519 7.03511 188.723 7.83829 189.084 8.57496C189.445 9.31163 189.955 9.96588 190.582 10.4966C191.208 11.0274 191.938 11.4231 192.726 11.6591C193.513 11.895 194.34 11.9661 195.157 11.8677C194.131 11.8299 193.133 11.5288 192.258 10.9933C191.383 10.4578 190.662 9.70624 190.164 8.81122Z" fill="#3F3D56"/>
<path d="M203.447 15.5942H187.473V40.4512H203.447V15.5942Z" fill="#3F3D56"/>
<path d="M296.966 241.138C298.669 237.992 296.736 234.137 294.516 231.331C292.297 228.525 289.585 225.598 289.642 222.014C289.725 216.872 295.192 213.841 299.563 211.114C302.804 209.093 305.793 206.696 308.468 203.973C309.546 202.88 310.576 201.712 311.205 200.314C312.11 198.308 312.085 196.014 312.028 193.821C311.838 186.485 311.479 179.159 310.95 171.842" stroke="#3F3D56" stroke-width="4" stroke-miterlimit="10"/>
<path d="M319.241 171.455C319.179 170.113 318.78 168.808 318.079 167.66C317.378 166.513 316.399 165.56 315.232 164.89L313.436 168.438L313.49 164.138C311.856 163.656 310.111 163.704 308.506 164.276C306.902 164.848 305.521 165.914 304.564 167.32C303.606 168.725 303.121 170.399 303.179 172.097C303.237 173.796 303.835 175.432 304.886 176.77C305.938 178.107 307.388 179.077 309.027 179.539C310.667 180 312.411 179.93 314.009 179.338C315.606 178.746 316.973 177.663 317.913 176.246C318.853 174.828 319.316 173.149 319.237 171.451L319.241 171.455Z" fill="#19CDFF"/>
<path d="M304.915 225.702C304.073 227.337 302.692 228.633 301.005 229.372C299.318 230.112 297.427 230.251 295.65 229.765C293.873 229.279 292.317 228.199 291.244 226.704C290.17 225.21 289.645 223.393 289.755 221.558C289.866 219.723 290.605 217.982 291.85 216.626C293.095 215.27 294.769 214.383 296.592 214.113C298.414 213.842 300.275 214.206 301.861 215.141C303.447 216.077 304.663 217.528 305.303 219.252L300.275 223.326L305.796 222.047C305.798 223.318 305.497 224.571 304.915 225.702Z" fill="#19CDFF"/>
<path d="M300.946 210.14C298.981 210.223 297.053 209.584 295.528 208.343C294.003 207.103 292.987 205.348 292.673 203.41C292.36 201.473 292.769 199.488 293.824 197.831C294.88 196.175 296.508 194.962 298.399 194.423L298.356 197.727L300.174 194.144H300.195C301.254 194.087 302.313 194.24 303.313 194.593C304.312 194.946 305.231 195.493 306.017 196.202C306.804 196.911 307.442 197.769 307.894 198.725C308.347 199.681 308.606 200.717 308.655 201.774C308.705 202.83 308.544 203.886 308.183 204.88C307.822 205.874 307.267 206.787 306.55 207.566C305.834 208.346 304.97 208.976 304.008 209.421C303.046 209.865 302.005 210.116 300.946 210.158V210.14Z" fill="#19CDFF"/>
<path d="M320.451 197.193C319.208 197.251 317.969 197.021 316.831 196.52C315.693 196.019 314.687 195.261 313.892 194.306C313.098 193.351 312.536 192.225 312.252 191.017C311.968 189.809 311.969 188.551 312.255 187.343C312.541 186.136 313.104 185.01 313.901 184.057C314.697 183.103 315.704 182.347 316.843 181.848C317.982 181.349 319.221 181.12 320.464 181.18C321.707 181.24 322.918 181.587 324.004 182.194L322.567 186.075L325.487 183.28C326.656 184.349 327.482 185.741 327.86 187.278C328.237 188.815 328.151 190.429 327.61 191.917C327.07 193.405 326.1 194.7 324.822 195.639C323.545 196.578 322.018 197.119 320.433 197.193H320.451Z" fill="#19CDFF"/>
<path opacity="0.1" d="M318.163 173.591C316.306 173.795 314.503 174.372 312.642 174.486C310.781 174.601 308.737 174.157 307.563 172.695C306.927 171.917 306.611 170.935 306.076 170.086C305.567 169.298 304.873 168.646 304.053 168.187C303.535 169.203 303.24 170.318 303.188 171.457C303.136 172.596 303.329 173.732 303.752 174.791C304.176 175.85 304.821 176.807 305.644 177.597C306.468 178.388 307.451 178.994 308.528 179.375C309.605 179.756 310.751 179.904 311.89 179.809C313.028 179.713 314.134 179.376 315.132 178.82C316.13 178.265 316.997 177.503 317.677 176.587C318.356 175.67 318.832 174.619 319.072 173.505C318.766 173.537 318.465 173.558 318.163 173.591Z" fill="black"/>
<path opacity="0.1" d="M320.451 197.193C319.066 197.257 317.688 196.962 316.452 196.338C315.215 195.713 314.16 194.781 313.391 193.63C312.622 192.48 312.164 191.15 312.062 189.771C311.96 188.392 312.216 187.01 312.807 185.759C313.447 186.187 313.996 186.736 314.424 187.375C314.995 188.235 315.343 189.231 316.015 190.023C317.265 191.489 319.406 191.969 321.345 191.883C323.285 191.797 325.153 191.245 327.093 191.066C327.362 191.045 327.632 191.027 327.905 191.019C327.505 192.717 326.56 194.239 325.215 195.353C323.87 196.467 322.198 197.113 320.451 197.193Z" fill="black"/>
<path opacity="0.1" d="M300.946 210.14C299.575 210.204 298.211 209.916 296.982 209.305C295.754 208.693 294.704 207.778 293.931 206.647C293.158 205.515 292.688 204.205 292.567 202.841C292.446 201.478 292.676 200.106 293.238 198.856C293.9 199.29 294.476 199.843 294.937 200.486C295.562 201.364 295.95 202.375 296.682 203.188C298.037 204.693 300.314 205.223 302.369 205.173C304.359 205.13 306.273 204.643 308.252 204.492C307.766 206.07 306.803 207.459 305.495 208.469C304.187 209.48 302.599 210.064 300.946 210.14Z" fill="black"/>
<path opacity="0.1" d="M304.915 225.702C303.984 227.544 302.377 228.956 300.428 229.646C298.48 230.336 296.339 230.25 294.452 229.406C292.565 228.562 291.078 227.025 290.298 225.114C289.518 223.203 289.507 221.067 290.267 219.148C290.93 219.581 291.524 220.11 292.031 220.717C292.796 221.645 293.299 222.699 294.186 223.563C295.827 225.171 298.478 225.834 300.838 225.895C302.2 225.91 303.561 225.846 304.915 225.702Z" fill="black"/>
<path d="M284.85 237.516C284.85 237.516 291.19 237.322 293.112 235.964C295.034 234.606 302.868 232.987 303.342 235.162C303.816 237.337 312.872 245.99 305.713 246.048C298.554 246.105 289.078 244.937 287.171 243.776C285.263 242.615 284.85 237.516 284.85 237.516Z" fill="#656380"/>
<path d="M116.023 15.3578L109.468 19.5036L113.448 12.2833C112.325 11.3875 110.934 10.8908 109.497 10.8715H109.389C108.934 10.8779 108.48 10.8443 108.031 10.7712L105.808 12.1759L106.76 10.4487C105.186 9.90026 103.826 8.87084 102.873 7.50688L98.8965 10.0152L101.411 5.45726C99.0833 2.67308 95.951 0.963867 92.4991 0.963867C88.3646 0.963867 84.6827 3.41839 82.3048 7.24172C81.6015 8.38489 80.6078 9.32234 79.4245 9.95914C78.2411 10.5959 76.91 10.9095 75.5661 10.868H75.3434C70.7779 10.868 67.0817 16.0314 67.0817 22.4024C67.0817 28.7735 70.7815 33.9333 75.3434 33.9333C76.3454 33.9304 77.3316 33.6845 78.217 33.2167C81.1949 31.6723 85.103 31.6436 88.2209 33.0232C89.5577 33.623 91.0063 33.9346 92.472 33.9377C93.9377 33.9408 95.3876 33.6352 96.7269 33.0411C99.8233 31.6902 103.685 31.7189 106.645 33.2346C107.523 33.6981 108.5 33.9439 109.493 33.9513C114.059 33.9513 117.755 28.7878 117.755 22.4204C117.782 19.9584 117.187 17.5293 116.023 15.3578Z" fill="#F2F2F2"/>
<path opacity="0.03" d="M103.663 32.2314C101.278 31.779 98.8119 32.046 96.5797 32.9982C95.2409 33.5918 93.7916 33.8971 92.3265 33.894C90.8615 33.8909 89.4135 33.5796 88.0773 32.9803C84.9558 31.6008 81.0476 31.6294 78.0698 33.1738C77.1843 33.6416 76.1981 33.8875 75.1961 33.8905C71.1407 33.8905 67.7678 29.8127 67.0637 24.4378C67.8739 23.8491 68.5619 23.1093 69.0896 22.2592C71.482 18.4395 75.1494 15.9778 79.2839 15.9778C83.4184 15.9778 87.0571 18.4036 89.4351 22.184C90.1447 23.3262 91.1378 24.2663 92.3183 24.9135C93.4988 25.5607 94.8268 25.893 96.1738 25.8783H96.2672C99.5 25.8819 102.302 28.4654 103.663 32.2314Z" fill="black"/>
<path d="M287.39 23.7999L284.132 25.8674L286.118 22.2842C285.557 21.8317 284.86 21.5794 284.139 21.5675H284.089C283.861 21.5707 283.634 21.5539 283.41 21.5174L282.3 22.234L282.767 21.3525C281.982 21.0797 281.303 20.5669 280.827 19.887L278.844 21.1411L280.098 18.8693C279.57 18.1902 278.898 17.6366 278.129 17.2486C277.361 16.8607 276.516 16.6481 275.655 16.6262C273.589 16.6262 271.754 17.8517 270.568 19.758C270.216 20.3258 269.719 20.7905 269.129 21.1052C268.538 21.4198 267.875 21.5731 267.206 21.5496H267.095C264.817 21.5496 262.971 24.126 262.971 27.2828C262.971 30.4396 264.817 33.0339 267.095 33.0339C267.596 33.0322 268.089 32.9092 268.531 32.6756C269.306 32.3 270.154 32.0968 271.015 32.0801C271.877 32.0634 272.732 32.2335 273.521 32.5788C274.188 32.8753 274.911 33.0285 275.642 33.0285C276.373 33.0285 277.095 32.8753 277.763 32.5788C278.546 32.2404 279.393 32.074 280.247 32.0906C281.1 32.1073 281.94 32.3068 282.709 32.6756C283.152 32.9094 283.645 33.0323 284.146 33.0339C286.424 33.0339 288.27 30.4611 288.27 27.2828C288.273 26.0667 287.971 24.8691 287.39 23.7999Z" fill="#F2F2F2"/>
<path opacity="0.03" d="M281.229 32.217C280.04 31.993 278.811 32.1264 277.698 32.6004C277.031 32.8969 276.308 33.0501 275.577 33.0501C274.847 33.0501 274.124 32.8969 273.456 32.6004C272.667 32.2551 271.811 32.0848 270.949 32.1015C270.087 32.1182 269.239 32.3215 268.463 32.6972C268.021 32.9318 267.528 33.0548 267.026 33.0555C265.001 33.0555 263.319 31.0238 262.967 28.3435C263.37 28.0525 263.714 27.6877 263.98 27.2686C265.166 25.3623 267.005 24.1404 269.067 24.1404C271.129 24.1404 272.943 25.3479 274.128 27.2327C274.482 27.8029 274.977 28.2721 275.566 28.5948C276.155 28.9175 276.818 29.0828 277.49 29.0745H277.544C279.157 29.0494 280.54 30.3394 281.229 32.217Z" fill="black"/>
<path d="M73.4001 77.3481L78.6661 80.6734L75.4763 74.8864C76.3808 74.1682 77.4993 73.7711 78.6553 73.7577H78.7379C79.0987 73.7631 79.4593 73.7367 79.8155 73.6789L81.5936 74.804L80.8213 73.4209C82.0809 72.979 83.1701 72.1544 83.9356 71.0631L87.1218 73.0769L85.1318 69.4255C86.996 67.1968 89.5069 65.8423 92.2692 65.8423C95.5846 65.8423 98.5337 67.8059 100.441 70.8588C101.003 71.7737 101.797 72.5242 102.743 73.0345C103.69 73.5448 104.754 73.7967 105.829 73.7648H106.009C109.666 73.7648 112.629 77.8999 112.629 83.0025C112.629 88.105 109.666 92.2437 106.009 92.2437C105.203 92.2406 104.411 92.0426 103.699 91.6668C102.454 91.0634 101.093 90.7372 99.7091 90.7106C98.3254 90.684 96.9524 90.9577 95.6852 91.5127C94.6116 91.9914 93.4488 92.2389 92.2728 92.2389C91.0967 92.2389 89.934 91.9914 88.8603 91.5127C87.6022 90.969 86.2416 90.7014 84.8707 90.728C83.4998 90.7546 82.1507 91.0747 80.9147 91.6668C80.2101 92.0326 79.4281 92.2255 78.6337 92.2293C74.9734 92.2293 72.01 88.0943 72.01 82.9881C71.9927 81.0217 72.4707 79.0824 73.4001 77.3481Z" fill="#F2F2F2"/>
<path opacity="0.03" d="M83.2963 90.8677C85.2075 90.5084 87.1827 90.7229 88.9717 91.484C90.0454 91.9627 91.2081 92.2102 92.3842 92.2102C93.5602 92.2102 94.723 91.9627 95.7966 91.484C97.0644 90.9289 98.438 90.6552 99.8223 90.6818C101.207 90.7084 102.569 91.0347 103.814 91.6381C104.525 92.0139 105.316 92.2119 106.12 92.215C109.371 92.215 112.072 88.9507 112.636 84.6436C111.988 84.17 111.436 83.5764 111.013 82.895C109.105 79.8349 106.156 77.8784 102.841 77.8784C99.5252 77.8784 96.6156 79.8205 94.7082 82.852C94.1407 83.7652 93.3466 84.5171 92.4028 85.0349C91.459 85.5528 90.3973 85.8191 89.3201 85.8082H89.2375C86.6297 85.7831 84.3883 87.8542 83.2963 90.8677Z" fill="black"/>
</g>
<defs>
<clipPath id="clip0">
<rect width="398" height="262" fill="white"/>
</clipPath>
</defs>
</svg>
