<svg width="938" height="806" viewBox="0 0 938 806" fill="none" xmlns="http://www.w3.org/2000/svg">
<g clip-path="url(#clip0)">
<path d="M75.3044 222.682C116.894 222.682 150.609 188.971 150.609 147.387C150.609 105.802 116.894 72.0916 75.3044 72.0916C33.7149 72.0916 0 105.802 0 147.387C0 188.971 33.7149 222.682 75.3044 222.682Z" fill="#2F9A2D"/>
<path d="M873.659 631.8C873.316 644.617 871.169 657.322 867.281 669.54C867.192 669.823 867.099 670.102 867.006 670.386H843.204C843.229 670.132 843.254 669.849 843.28 669.54C844.867 651.296 854.017 540.262 843.077 521.274C844.033 522.814 875.505 573.833 873.659 631.8Z" fill="#7FFF7C"/>
<path d="M871.873 669.54C871.675 669.823 871.467 670.107 871.256 670.386H853.399C853.535 670.145 853.691 669.861 853.873 669.54C856.823 664.216 865.555 648.3 873.659 631.8C882.37 614.069 890.36 595.665 889.687 589.004C889.895 590.506 895.921 636.303 871.873 669.54Z" fill="#7FFF7C"/>
<path d="M938 668.764H253.554V671.002H938V668.764Z" fill="#E6E6E6"/>
<path d="M691.663 738.669L694.988 711.242L788.916 687.139L778.11 654.726C785.637 633.138 798.853 622.555 822.997 633.116L864.527 658.912C868.563 661.419 871.851 664.965 874.047 669.178C876.243 673.391 877.267 678.117 877.01 682.861C876.756 687.623 875.221 692.229 872.566 696.192C869.912 700.155 866.236 703.327 861.928 705.375C815.435 727.41 756.178 735.842 691.663 738.669Z" fill="#FFB8B8"/>
<path d="M697.482 746.98L668.389 742.825L641.178 748.378C639.511 748.718 637.79 748.692 636.133 748.302C634.477 747.912 632.926 747.167 631.585 746.119C630.245 745.07 629.149 743.743 628.372 742.23C627.595 740.716 627.156 739.052 627.085 737.352C627.006 735.451 627.389 733.559 628.203 731.839C629.016 730.119 630.235 728.622 631.755 727.477L674.396 695.355C678.052 692.6 682.572 691.238 687.142 691.515C691.712 691.791 696.034 693.688 699.333 696.863L709.95 707.086C702.352 711.8 696.702 718.871 693.326 728.696C700.628 732.71 702.014 738.804 697.482 746.98Z" fill="#2F2E41"/>
<path d="M725.268 459.027C740.128 459.027 752.174 446.982 752.174 432.124C752.174 417.267 740.128 405.222 725.268 405.222C710.409 405.222 698.363 417.267 698.363 432.124C698.363 446.982 710.409 459.027 725.268 459.027Z" fill="#FFB8B8"/>
<path d="M767.305 485.176L707.041 510.525C711.939 485.937 714.38 463.537 707.041 449.853L745.693 445.282C743.774 455.798 753.553 469.881 767.305 485.176Z" fill="#FFB8B8"/>
<path d="M665.064 737.838L642.621 736.176C628.872 678.849 621.833 624.664 624.905 575.213C625.34 567.994 628.553 561.223 633.873 556.323C639.192 551.422 646.203 548.771 653.434 548.927C660.383 549.085 667.023 551.827 672.058 556.618L701.081 584.233C714.023 596.453 724.07 611.41 730.487 628.012C738.707 649.537 735.756 661.604 716.134 659.555C703.872 658.188 692.595 652.194 684.605 642.795L663.402 618.156L665.064 737.838Z" fill="#FFB8B8"/>
<path d="M647.684 805.959C644.743 805.767 641.885 804.901 639.332 803.427C636.779 801.953 634.6 799.911 632.964 797.46C631.327 795.008 630.277 792.213 629.895 789.29C629.513 786.367 629.809 783.396 630.76 780.606L635.14 767.759L638.465 735.345C643.587 724.895 650.84 726.458 659.246 734.513C664.59 733.989 665.736 728.646 665.064 721.215L681.915 743.897C683.357 745.838 684.253 748.13 684.507 750.535C684.762 752.939 684.368 755.368 683.364 757.569L666.405 794.765C664.789 798.31 662.133 801.279 658.789 803.278C655.445 805.278 651.572 806.213 647.684 805.959Z" fill="#2F2E41"/>
<path d="M859.986 655.972C829.231 673.426 819.592 673.932 788.917 686.308L762.317 671.348C731.079 682.898 709.165 667.065 685.429 643.505C700.962 617.637 694.092 584.021 703.716 584.496L818.841 620.649L823.828 633.116L859.986 655.972Z" fill="#2F2E41"/>
<path d="M822.997 628.961C782.347 646.553 738.579 627.927 701.222 586.989L676.487 487.102C676.194 486.002 676.13 484.853 676.299 483.727C676.467 482.602 676.865 481.522 677.467 480.556C678.068 479.589 678.862 478.756 679.798 478.108C680.734 477.46 681.793 477.01 682.909 476.787L711.613 471.047L725.744 493.487L754.005 468.553L784.019 478.364C788.009 479.669 791.571 482.033 794.322 485.204C797.073 488.375 798.911 492.234 799.64 496.368L822.997 628.961Z" fill="#19CDFF"/>
<path opacity="0.2" d="M758.43 713.64C756.237 712.804 754.275 711.455 752.711 709.704C751.146 707.954 750.025 705.854 749.44 703.581C748.855 701.308 748.824 698.927 749.349 696.64C749.875 694.352 750.941 692.223 752.459 690.433L771.461 668.024L784.761 675.504L777.912 703.421C777.417 705.441 776.497 707.333 775.215 708.97C773.933 710.608 772.317 711.955 770.475 712.921C768.633 713.888 766.607 714.452 764.53 714.575C762.453 714.699 760.374 714.38 758.43 713.64Z" fill="black"/>
<path d="M758.43 710.316C756.237 709.48 754.275 708.13 752.711 706.38C751.146 704.63 750.025 702.53 749.44 700.257C748.855 697.983 748.824 695.603 749.349 693.315C749.875 691.027 750.941 688.899 752.46 687.109L771.461 664.699L784.761 672.179L777.912 700.096C777.417 702.116 776.497 704.008 775.215 705.646C773.933 707.284 772.317 708.631 770.475 709.597C768.633 710.563 766.607 711.127 764.53 711.251C762.453 711.375 760.374 711.056 758.43 710.316Z" fill="#FFB8B8"/>
<path d="M788.086 678.828L768.136 665.53L797.229 588.236L786.423 479.358L796.281 485.518C801.571 488.824 806.134 493.17 809.694 498.293C813.254 503.416 815.736 509.208 816.989 515.318L832.972 593.222C825.978 629.131 814.322 660.725 788.086 678.828Z" fill="#19CDFF"/>
<path opacity="0.2" d="M776.033 555.406L786.008 605.274L777.803 634.439L776.033 555.406Z" fill="black"/>
<path d="M698.955 429.817C698.955 429.817 683.451 379.082 730.837 389.722C738.186 391.373 744.536 395.645 749.588 401.232C750.04 401.721 750.594 402.105 751.211 402.356C751.828 402.608 752.492 402.722 753.157 402.69C760.727 402.69 765.403 429.737 750.263 441.631C750.263 441.631 753.352 425.626 747.737 420.172C746.728 419.249 745.882 418.161 745.238 416.955C741.583 409.584 729.299 407.164 720.826 407.792C716.5 408.112 716.122 415.653 711.334 414.599C700.438 412.203 696.961 424.823 698.955 429.817Z" fill="#2F2E41"/>
<path d="M746.65 505.121L746.336 507.419L744.4 521.593L741.229 544.806L740.435 550.618C740.375 551.061 740.155 551.468 739.818 551.762C739.481 552.057 739.048 552.219 738.6 552.219H717.454C717.007 552.219 716.575 552.057 716.238 551.764C715.901 551.471 715.681 551.065 715.619 550.622L714.812 544.806L711.587 521.593L709.617 507.408L709.3 505.126C709.263 504.864 709.284 504.597 709.359 504.343C709.434 504.089 709.563 503.855 709.737 503.655C709.911 503.455 710.126 503.295 710.366 503.185C710.607 503.076 710.869 503.019 711.134 503.019H744.815C745.079 503.019 745.34 503.076 745.581 503.185C745.822 503.295 746.036 503.454 746.21 503.653C746.384 503.853 746.513 504.087 746.589 504.34C746.665 504.593 746.685 504.86 746.65 505.121Z" fill="#E6E6E6"/>
<path d="M713.365 496.869H742.693C742.936 496.869 743.177 496.917 743.402 497.01C743.626 497.103 743.83 497.239 744.002 497.411C744.174 497.583 744.311 497.788 744.404 498.012C744.497 498.237 744.545 498.478 744.545 498.721V501.167C744.545 501.658 744.35 502.129 744.002 502.477C743.655 502.824 743.184 503.019 742.693 503.019H713.365C712.874 503.019 712.403 502.824 712.056 502.477C711.708 502.129 711.513 501.658 711.513 501.167V498.721C711.513 498.478 711.561 498.237 711.654 498.012C711.747 497.788 711.884 497.583 712.056 497.411C712.228 497.239 712.432 497.103 712.656 497.01C712.881 496.917 713.122 496.869 713.365 496.869Z" fill="#3F3D56"/>
<path d="M749.299 506.094C735.161 507.637 720.897 507.637 706.759 506.094C706.515 506.094 706.275 506.046 706.05 505.953C705.825 505.86 705.621 505.724 705.449 505.552C705.277 505.38 705.141 505.176 705.048 504.951C704.955 504.726 704.907 504.486 704.907 504.242V501.796C704.907 501.553 704.955 501.312 705.048 501.087C705.141 500.863 705.277 500.659 705.449 500.487C705.621 500.315 705.825 500.178 706.05 500.085C706.275 499.992 706.515 499.944 706.759 499.944C720.886 501.681 735.172 501.681 749.299 499.944C749.79 499.944 750.261 500.139 750.609 500.487C750.956 500.834 751.151 501.305 751.151 501.796V504.242C751.151 504.733 750.956 505.204 750.609 505.552C750.261 505.899 749.79 506.094 749.299 506.094Z" fill="#3F3D56"/>
<path d="M727.17 534.512C731.585 534.512 735.164 530.934 735.164 526.52C735.164 522.105 731.585 518.527 727.17 518.527C722.756 518.527 719.177 522.105 719.177 526.52C719.177 530.934 722.756 534.512 727.17 534.512Z" fill="white"/>
<path d="M747.721 543.334C747.964 545.669 747.643 548.028 746.786 550.213C745.928 552.398 744.559 554.346 742.793 555.893C741.027 557.439 738.916 558.54 736.637 559.102C734.358 559.665 731.977 559.672 729.694 559.124L701.123 552.265L701.806 537.023L729.816 530.552C731.843 530.084 733.946 530.052 735.987 530.458C738.027 530.864 739.957 531.699 741.65 532.908C743.343 534.116 744.76 535.671 745.807 537.469C746.853 539.266 747.506 541.266 747.721 543.334Z" fill="#FFB8B8"/>
<path d="M709.119 554.991L632.013 556.918C629.23 556.988 626.465 556.449 623.91 555.341C621.356 554.233 619.075 552.581 617.224 550.501C615.374 548.421 613.999 545.962 613.196 543.297C612.393 540.631 612.182 537.822 612.575 535.066C613.192 530.748 615.265 526.77 618.451 523.79L654.755 489.832C661.488 483.534 669.878 479.287 678.94 477.588L691.663 475.203L699.144 531.719L655.921 526.732L706.625 532.55L709.119 554.991Z" fill="#19CDFF"/>
<path d="M607.539 720.832H410.691C408.94 720.832 407.261 720.136 406.024 718.899C404.786 717.661 404.09 715.982 404.09 714.232C475.448 705.94 545.464 705.94 614.139 714.232C614.139 715.982 613.444 717.661 612.206 718.899C610.968 720.136 609.289 720.832 607.539 720.832Z" fill="#2F2E41"/>
<path d="M614.139 714.62L404.09 714.232L428.434 673.275L428.551 673.081V582.818C428.551 581.722 428.766 580.637 429.186 579.625C429.605 578.613 430.22 577.693 430.994 576.918C431.769 576.144 432.689 575.529 433.701 575.11C434.714 574.691 435.799 574.475 436.894 574.475H580.17C581.266 574.475 582.351 574.691 583.363 575.11C584.376 575.529 585.295 576.144 586.07 576.918C586.845 577.693 587.46 578.613 587.879 579.625C588.298 580.637 588.514 581.722 588.514 582.818V673.702L614.139 714.62Z" fill="#3F3D56"/>
<path d="M436.704 580.298C435.984 580.299 435.293 580.586 434.783 581.095C434.274 581.605 433.987 582.295 433.986 583.016V665.317C433.987 666.038 434.274 666.728 434.783 667.238C435.293 667.747 435.984 668.034 436.704 668.035H581.525C582.246 668.034 582.937 667.747 583.446 667.238C583.956 666.728 584.242 666.038 584.243 665.317V583.016C584.242 582.295 583.956 581.605 583.446 581.095C582.937 580.586 582.246 580.299 581.525 580.298L436.704 580.298Z" fill="white"/>
<path d="M437.656 678.905C437.433 678.905 437.215 678.969 437.028 679.089C436.84 679.209 436.691 679.38 436.598 679.582L429.096 695.887C429.015 696.065 428.979 696.26 428.993 696.455C429.006 696.65 429.068 696.838 429.174 697.003C429.279 697.167 429.424 697.302 429.596 697.396C429.767 697.49 429.959 697.539 430.154 697.539H587.899C588.098 697.539 588.293 697.488 588.466 697.391C588.64 697.295 588.785 697.155 588.89 696.987C588.994 696.818 589.054 696.625 589.063 696.427C589.071 696.228 589.029 696.031 588.941 695.853L580.787 679.548C580.691 679.355 580.542 679.191 580.358 679.078C580.174 678.964 579.962 678.904 579.746 678.905L437.656 678.905Z" fill="#2F2E41"/>
<path d="M508.532 578.939C509.497 578.939 510.279 578.157 510.279 577.193C510.279 576.228 509.497 575.446 508.532 575.446C507.567 575.446 506.785 576.228 506.785 577.193C506.785 578.157 507.567 578.939 508.532 578.939Z" fill="white"/>
<path d="M493.027 700.645C492.771 700.645 492.522 700.729 492.319 700.885C492.116 701.041 491.97 701.259 491.903 701.506L490.021 708.494C489.975 708.667 489.968 708.848 490.003 709.023C490.038 709.199 490.112 709.364 490.221 709.505C490.33 709.647 490.47 709.762 490.63 709.841C490.791 709.921 490.967 709.962 491.146 709.962H526.929C527.115 709.962 527.298 709.917 527.463 709.832C527.628 709.747 527.77 709.624 527.878 709.473C527.986 709.321 528.055 709.146 528.082 708.963C528.108 708.779 528.09 708.592 528.029 708.416L525.61 701.428C525.531 701.199 525.383 701.001 525.185 700.861C524.988 700.72 524.752 700.645 524.51 700.645H493.027Z" fill="#2F2E41"/>
<path d="M588.514 671.722V673.276H428.434L428.554 673.081V671.722H588.514Z" fill="#2F2E41"/>
<path d="M360.61 619.931C361.05 636.359 363.802 652.642 368.785 668.302C368.899 668.665 369.018 669.023 369.137 669.387H399.645C399.613 669.061 399.58 668.698 399.548 668.302C397.513 644.919 385.785 502.605 399.808 478.268C398.582 480.242 358.245 545.634 360.61 619.931Z" fill="#7FFF7C"/>
<path d="M362.899 668.302C363.154 668.665 363.42 669.029 363.691 669.387H386.577C386.404 669.078 386.203 668.714 385.97 668.302C382.189 661.479 370.998 641.079 360.61 619.931C349.446 597.205 339.204 573.616 340.067 565.079C339.801 567.004 332.076 625.702 362.899 668.302Z" fill="#7FFF7C"/>
<path d="M414.517 174.996L426.92 165.077C417.285 164.014 413.325 169.269 411.705 173.428C404.177 170.302 395.982 174.398 395.982 174.398L420.799 183.407C419.547 180.063 417.368 177.146 414.517 174.996Z" fill="#3F3D56"/>
<path d="M788.099 123.939L800.502 114.019C790.867 112.956 786.907 118.211 785.287 122.37C777.759 119.244 769.564 123.34 769.564 123.34L794.381 132.349C793.129 129.005 790.95 126.088 788.099 123.939Z" fill="#3F3D56"/>
<path d="M716.676 255.571L729.079 245.652C719.444 244.589 715.485 249.844 713.864 254.003C706.336 250.877 698.142 254.973 698.142 254.973L722.959 263.982C721.707 260.638 719.527 257.721 716.676 255.571Z" fill="#3F3D56"/>
<path d="M229.785 450.6C290.655 439.627 321.846 330.06 299.454 205.876C277.061 81.6921 209.563 -10.0834 148.694 0.889977C87.8239 11.8633 56.6321 121.43 79.0249 245.614C101.418 369.798 168.915 461.574 229.785 450.6Z" fill="#7FFF7C"/>
<path d="M170.898 182.979C180.748 209.762 189.514 236.91 197.195 264.422C204.862 291.908 211.42 319.672 216.869 347.713C222.318 375.745 226.638 403.965 229.829 432.373C233.004 460.731 235.045 489.186 235.95 517.737C236.849 546.258 236.601 574.784 235.204 603.315C235.033 606.811 234.843 610.305 234.637 613.799C234.426 617.377 239.994 617.365 240.204 613.799C241.886 585.177 242.414 556.521 241.787 527.828C241.157 499.3 239.385 470.827 236.472 442.41C233.552 413.911 229.507 385.555 224.336 357.343C219.162 329.144 212.863 301.183 205.439 273.459C198.019 245.766 189.488 218.403 179.845 191.37C178.668 188.074 177.475 184.784 176.266 181.5C175.04 178.165 169.657 179.607 170.898 182.979V182.979Z" fill="#3F3D56"/>
<path d="M209.258 288.337L233.923 233.578L240.874 218.144C241.225 217.502 241.317 216.75 241.132 216.042C240.946 215.334 240.497 214.724 239.876 214.336C239.237 213.97 238.48 213.869 237.767 214.055C237.054 214.242 236.444 214.702 236.067 215.335L211.403 270.093L204.451 285.527C204.1 286.17 204.008 286.922 204.194 287.63C204.38 288.337 204.829 288.948 205.45 289.335C206.088 289.702 206.846 289.803 207.558 289.616C208.271 289.429 208.882 288.97 209.258 288.337H209.258Z" fill="#3F3D56"/>
<path d="M214.708 325.752L158.469 304.669L142.617 298.726C141.906 298.536 141.148 298.633 140.507 298.997C139.866 299.361 139.395 299.962 139.193 300.67C139.013 301.381 139.115 302.135 139.477 302.773C139.839 303.411 140.434 303.884 141.137 304.094L197.377 325.177L213.228 331.12C213.94 331.31 214.698 331.212 215.339 330.849C215.979 330.485 216.451 329.884 216.653 329.176C216.833 328.465 216.731 327.711 216.369 327.073C216.006 326.435 215.412 325.962 214.708 325.752V325.752Z" fill="#3F3D56"/>
<path d="M170.914 624.42C170.914 624.42 238.647 602.154 301.742 624.42H170.914Z" fill="#7FFF7C"/>
<path d="M473.994 613.871C487.416 613.731 500.836 613.491 514.258 613.309C518.732 613.248 523.207 613.195 527.681 613.149C531.537 613.109 531.546 607.114 527.681 607.154C514.259 607.294 500.839 607.534 487.417 607.716C482.943 607.777 478.469 607.831 473.994 607.876C470.138 607.916 470.129 613.911 473.994 613.871Z" fill="#19CDFF"/>
<path d="M473.994 627.858L528.24 627.296L543.668 627.136C547.524 627.096 547.533 621.101 543.668 621.141L489.422 621.703L473.994 621.863C470.138 621.903 470.129 627.898 473.994 627.858Z" fill="#19CDFF"/>
<path d="M473.994 641.845L528.24 641.283L543.668 641.123C547.524 641.083 547.533 635.088 543.668 635.128L489.422 635.69L473.994 635.85C470.138 635.89 470.129 641.885 473.994 641.845Z" fill="#19CDFF"/>
</g>
<defs>
<clipPath id="clip0">
<rect width="938" height="806" fill="white"/>
</clipPath>
</defs>
</svg>
